<?xml version="1.0" encoding="UTF-8"?>
<svg id="_レイヤー_2" data-name="レイヤー 2" xmlns="http://www.w3.org/2000/svg" viewBox="0 0 969.03 261.11">
  <defs>
    <style>
      .cls-1 {
        fill: #231815;
      }

      .cls-2 {
        fill: #ffe100;
      }
    </style>
  </defs>
  <g id="_レイヤー_1-2" data-name="レイヤー 1">
    <path class="cls-2" d="M200.2,212.66l44.47-32.25-11.12-8.1,11.12-8.05-44.47-32.32-11.16,8.09-22.22-16.14,11.11-8.06-44.46-32.27-11.13,8.06-11.12-8.06-44.49,32.27,11.13,8.06-22.24,16.14-11.12-8.09L0,164.25l11.09,8.05-11.09,8.1,44.48,32.25,11.12-8.06,22.24,16.13-11.13,8.1,44.49,32.28,11.12-8.1,11.13,8.1,44.46-32.28-11.11-8.1,22.22-16.13,11.16,8.06ZM122.33,188.49l-22.27-16.19,22.27-16.12,22.24,16.12-22.24,16.19Z"/>
    <g>
      <path class="cls-1" d="M541.46,167.31l-9.43-11.28h-56.01c.85-2.39,1.59-4.66,2.26-6.88h71.72v-19.7h-67.34c1.56-11.82.49-18.52.49-18.52h-22.55c.28,6.3-.16,12.5-1.1,18.52h-43.17v19.7h38.25c-12.35,35.74-39.05,61.39-39.05,61.39l18.15,14.06c13.57-15.42,23.45-29.86,30.68-43,3.91,6.82,9.5,13.23,15.84,19.08-18.17,11.84-36.51,18.27-36.51,18.27l15.36,15.15c14.71-4.04,27.66-11.25,38.83-19.5,17.45,12.07,34.15,19.5,34.15,19.5l16.91-15.15c-14.27-7.02-25.38-13.36-34.01-18.91,17.07-16.73,26.53-32.73,26.53-32.73M497.44,187.22c-10.89-9.28-12.37-14.28-12.37-14.28h24.1c-3.13,5.13-7.17,9.92-11.73,14.28"/>
      <path class="cls-1" d="M648.57,151.35l-16.29,13.19v-10.15c6.24-7.18,10.7-12.57,12.21-15.9h39.15v-21.94h-126.52v21.94h56.52c-16.71,24.34-65.01,49.19-65.01,49.19l18.84,15.32c16.03-9.05,28.72-17.48,38.8-25.12v53.65h26.02v-63.22c17.05,20.07,39.78,33.73,39.78,33.73l18.16-16.29c-22.85-12.82-41.65-34.4-41.65-34.4"/>
      <path class="cls-1" d="M302.75,111.32c-13.33,38.85-35.08,56.2-35.08,56.2l15.77,15.13,7.12-8.62-.15,58.73h20.68v-90.38c8.78-16.63,12.34-28.13,12.34-28.13l-20.69-2.92Z"/>
      <path class="cls-1" d="M372.67,190.5h31.1v-18.16h-31.1v-20.71h33.65v-17.95h-35.23l9.53-8.98c-4.8-5.2-30.67-15.48-30.67-15.48l-13.99,13.19c4.74,1.86,14.52,7.29,21.7,11.27h-39.01v17.95h30.87v20.71h-31.12v18.16h31.12v20.59h-35.92v18.83h95.02v-18.83h-35.96v-20.59Z"/>
      <path class="cls-1" d="M771.04,217.74v-4.1c-6,.51-15.46.96-25.67,1.29v-4.09h26.01v-13.19h-26.01v-4.67h27.89v-41.37h-27.89v-5h27.89v-13.16h-27.89v-3.88c26.55-.31,30.07-2.08,30.07-2.08l-10.34-15.66c-26.34,5.63-68.93,4.1-68.93,4.1l5.03,13.11c9.39.29,17.57.42,24.74.53v3.88h-29.77v13.16h29.77v5h-27.25v41.37h27.25v4.67h-27.25v13.19h27.25v4.66c-16.1.41-29.77.68-29.77.68l5.96,13.73c23.81-1.51,68.91-4.07,68.91-4.07v-7.49l-.32-.32s.16-.11.32-.3M755.05,181.41h-9.2v-4.24h9.2v4.24ZM745.52,162.93h9.24v4.37h-9.24v-4.37ZM726.06,181.71h-9.2v-4.19h9.2v4.19ZM726.06,167.31h-9.2v-4.37h9.2v4.37Z"/>
      <path class="cls-1" d="M832.46,133.75h-22.6c.16-13.64-.57-22.82-.57-22.82h-19.76c.48,8.18.69,15.79.69,22.82h-15.41l1.9,19.76h12.92c-3.07,46.74-16.46,62.09-18.59,64.24v.61l13.47,14.09c16.56-20.34,22.56-52.73,24.54-78.94h4.92c.31,12.21-.92,51.06-.92,51.06,0,9.7-8.48,10.36-8.48,10.36h-8.76l10.97,16.59c28.82-3.13,25.69-31.98,25.69-31.98v-65.79Z"/>
      <path class="cls-1" d="M942.18,136.58h24.33v-18.5h-48.87v-7.15h-23.18v7.15h-49.17v18.5h23.33l2.62,7.54h-25.64c2.53,50.76-12.82,74.58-12.82,74.58l15.65,11.23c7.72-12.5,11.98-27.13,14.33-39.76l11.06,9.72c1.5-1.15,3.12-2.76,4.67-4.69v13.44h24.12v4.7h-44.53v16.58h108.14v-16.58h-38.22v-4.7h25.69v-16.48h-25.69v-5.59h30.68v-16.79h-30.68v-7.51h-25.39v7.51h-9.21c1.05-2.27,1.69-3.72,1.69-3.72-3.16-2.12-7.81-4.73-11.26-6.63h85.19v-15.32h-29.49l2.64-7.54M863.86,183.52c2-13.9,1.78-24.09,1.78-24.09h12.5c-3.93,9.66-10.3,18.85-14.27,24.09M884.45,186.57h18.16v5.59h-21.86c1.27-1.74,2.54-3.64,3.7-5.59M916.42,144.11h-21.88l-2.35-7.54h26.58l-2.35,7.54Z"/>
      <path class="cls-1" d="M380.09,8.63c-2.62,6.17-4.16,9.25-5.17,11.1l2.01,1.16c.63.38.92.85.92,1.16,0,.54-.14.77-1.76,2.47-.3,7.94-.39,12.18-.39,15.95,0,7.64.61,19.74.61,27.29,0,4.01-2.92,4.24-3.92,4.24-2.24,0-2.46-1.32-2.46-2.24,0-2.24.61-12.02.68-14.02.22-8.41.31-19.27.46-28.99-2.61,4.39-7.31,11.41-13.55,16.88l-.4-.38c7.94-11.63,15.88-31.06,17.27-37.31.24-1,.24-1.38.47-4.77l7.86,4c.46.23.85.77.85,1.31,0,.77-.31.92-3.47,2.16M427.03,20.19h-37.52c-1.01,0-5.33,0-9.1.69l-1.54-3.08c5.17.46,10.48.54,11.87.54h26.36l3-3.54c.61-.77.79-1,1.16-1s.7.23,1.46.84l4.78,3.55c.62.46.78.84.78,1.16,0,.69-.7.85-1.25.85M419.71,9.87h-23.89c-1.4,0-5.33,0-9.03.69l-1.54-3.08c4.77.39,9.56.54,11.8.54h13.02l2.86-3.47c.55-.7.78-.92,1.17-.92s.69.23,1.46.84l4.54,3.39c.61.46.79.77.79,1.15,0,.7-.7.85-1.17.85M419.17,39.39h-23.2c-1.38,0-5.39,0-9.09.69l-1.54-3.08c4.78.38,9.56.53,11.86.53h13.19l2.23-3.39c.39-.62.85-.92,1.24-.92.3,0,.61.15,1.37.77l4.4,3.39c.46.38.78.77.78,1.16,0,.77-.7.85-1.24.85M418.87,29.6h-22.9c-1.38,0-5.31,0-9.02.69l-1.54-3.01c4.78.39,9.55.47,11.79.47h12.64l2.39-3.32c.55-.69.7-1,1.16-1,.38,0,.7.31,1.54.93l4.31,3.23c.61.47.77.93.77,1.23,0,.7-.7.77-1.15.77M420.25,51.57c.08,2.08.45,13.03.54,14.11.14,1.84.14,2.08.14,2.39,0,3.08-3.38,3.31-3.85,3.31-2.31,0-2.31-1-2.15-5.47h-23.13c.09,1.15.09,1.92-.29,2.7-.55,1.07-2.71,1.92-3.78,1.92-2.01,0-2.01-1.54-2.01-2.32,0-2.15.54-11.95.54-14.18,0-5.86-.31-7.63-.62-9.17l6.55,3.16h22.37l2.07-2.16c.47-.46.77-.69,1.08-.69.46,0,.77.15,1.54.77l2.62,2.16c.61.46.84.77.84,1.15,0,.86-1.54,1.78-2.46,2.31M414.94,49.88h-23.13v14.18h23.13v-14.18Z"/>
      <path class="cls-1" d="M525.19,6.86l2.7-2.31c.61-.54.93-.7,1.16-.7.38,0,.93.31,1.22.54l3.86,2.77c.46.31.77.86.77,1.16,0,.85-.99,1.62-3.24,2.93-.16,2.93-.16,3.24-.16,11.49,0,5.86.23,31.6.23,36.85,0,4.62,0,9.02-9.02,10.87-1.47-5.16-5.39-7.02-7.25-7.86l.16-.62c2.46.31,4.94.54,7.4.54,3.09,0,3.09-.61,3.09-6.09,0-1.54,0-9.63.07-10.79h-18.34c0,4.48.07,11.25.3,17.58.08,1.07.08,2.16.08,2.54,0,1.62,0,4.7-4.31,4.7-2.32,0-2.4-1.62-2.4-2.63,0-.61.08-2.54.16-3.23.62-9.33.7-16.27.7-18.97h-17.03c-1.02,6.4-3.47,16.11-15.74,24.6l-.61-.62c11.55-10.64,12.09-29.21,12.09-49.95,0-7.79,0-8.02-1.22-16.42l7.63,3.62h37.69ZM486.57,26.67c0,4.47-.38,13.11-.92,17.11h16.8l.15-17.11h-16.03ZM486.57,24.82h16.03V8.71h-16.03v16.11ZM526.19,43.78l.09-17.11h-18.27l-.16,17.11h18.34ZM526.28,24.82l.06-16.11h-18.33v16.11h18.27Z"/>
      <path class="cls-1" d="M608.47,5.39c3.7,0,5.78,1.85,5.78,4.62,0,1.39-.23,2.09-1,4.78-2.08,7.17-2.16,12.41-2.16,13.95,0,2.31.16,3.62.62,4.48.45.84,1.37,1.77,2.3,1.77.85,0,1.78-.47,2.77-1.01,2.16-1.08,6.32-3.08,8.56-3.08,2.39,0,3.7,1.39,3.7,3.08,0,2.32-1.4,2.55-5.48,3.32-7.63,1.38-12.33,3.46-15.95,6.86-2.55,2.39-3.86,5.78-3.86,8.71,0,7.18,7.86,8.64,13.11,8.64,2.77,0,6.16-.47,11.02-1.54.47-.08,1.16-.23,1.63-.23,1.08,0,3.77.69,3.77,3.16,0,1.38-.85,2.01-1.38,2.32-2.55,1.62-11.57,1.62-12.5,1.62-6.4,0-12.41-1.08-15.95-4.63-1.24-1.23-3.24-3.85-3.24-7.78,0-9.1,8.64-14.65,11.26-16.35-4.55-1.23-5.1-5.55-5.1-8.94s.46-6.87.61-8.25c.16-.85.62-4.63.62-8.01,0-4.78-2.24-5.01-5.08-5.24,1.46-1.16,2.77-2.24,5.93-2.24"/>
      <path class="cls-1" d="M705.41,46.71c-.32,2.39-.46,3.39-1.01,5.24l4.71,2.32h15.18l2.16-2.32c.31-.3.7-.7.99-.7.4,0,1.02.47,1.4.77l2.77,2.31c.39.31.78.77.78,1.08s-.23.61-.47.85c-.23.23-1.08.84-1.78,1.39,0,1.46.23,8.48.23,10.1,0,1.93-2.24,3.16-3.7,3.16-1.85,0-1.78-1.62-1.69-2.93h-16.11c0,.62,0,1.31-.17,1.7-.46,1.23-1.84,1.84-2.99,1.84-1.78,0-2.32-.84-2.32-2.23,0-1.62.38-9.56.38-11.33,0-1.16,0-2.47-.07-3.85-3.63,8.79-11.03,12.48-13.5,13.8l-.15-.46c9.03-8.02,10.72-17.66,10.72-29.76,0-3.78-.16-8.87-1-12.33l6.71,3.78h17.19l2.23-2.39c.31-.31.77-.7,1.15-.7s.78.31,1.16.62l3.09,2.86c.23.23.61.61.61,1.08,0,.54-.38.85-.61,1.08-.23.15-1.16,1-1.7,1.38-.07,1.08-.07,2.15-.07,3.01,0,1.46.31,8.63.31,10.25,0,1.93-2.46,2.7-3.63,2.7-1.23,0-1.69-.77-1.69-2.31h-19.11ZM717.73,20.58l2.3-3c.4-.54.78-.93,1.25-.93.38,0,.85.31,1.46.77l4.17,2.93c.23.16.76.69.76,1.23,0,.69-.53.85-1.15.85h-12.72c-1.16,0-5.39,0-9.09.69l-1.54-3.08c-5.48,4.62-9.87,6.86-12.5,8.09l-.23-.62c9.73-7.94,19.98-20.81,21.67-27.52l6.4,3.31c.45.23.85.62.85,1.08,0,.77-.85,1.08-2.16,1.39,7.63,1.69,17.41,6.17,17.41,11.03,0,1.84-.99,3-2.83,3-1.55,0-1.93-.38-5.02-4.09-5.93-7.01-8.87-8.56-10.87-9.4-4.39,6.55-9.63,11.18-12.63,13.64,4.15.46,10.93.62,11.79.62h2.7ZM724.52,44.87v-6.4h-18.5c-.15,3.94-.31,5.4-.46,6.4h18.97ZM724.52,36.61v-5.63h-18.35c-.07,1.86-.07,4.63-.07,5.63h18.43ZM725.06,56.12h-16.27v10.02h16.27v-10.02ZM744.41,10.18c.46.15.77.54.77,1.15s-.46,1.16-2.3,2.47c-.16,3.85-.16,14.8-.16,19.12s.07,12.25.16,16.57c0,.93.06,2.47.06,3.17,0,2-.93,3.93-3.76,3.93-1.09,0-1.86-.62-1.86-2.08,0-.62.15-3.32.15-3.86.16-8.09.32-17.49.32-28.06,0-8.33,0-11.49-.85-15.18l7.47,2.78ZM758.9,5.78c.46.15.85.62.85,1,0,.77-.7,1.23-2.77,2.47,0,13.18-.17,30.52.15,43.56,0,1.38.32,7.7.32,8.94,0,2.93,0,8.02-9.79,9.64-.46-4.47-3.55-6.09-7.1-7.94v-.47c2.71.31,5.48.47,8.17.47,2.17,0,3.25,0,3.25-2.69V12.02c0-3.39-.39-6.86-1.24-9.4l8.17,3.16Z"/>
      <path class="cls-1" d="M870.01,70.15c-31.53.15-42.55.08-48.95-12.03-.93,1.15-2.78,3.39-4.78,5.4-3.86,3.94-4.25,4.31-4.95,5.09-.3,1.61-.38,2.23-1.07,2.23-.39,0-.69-.31-.92-.62l-5.01-6.4c2.61-.31,3.3-.38,4.62-.85.92-.38,6.02-2.31,8.48-3.78v-22.27h-2.85c-1.92,0-5.62,0-9.09.69l-1.55-3.08c4.95.38,10.11.54,12.26.54l2.85-2.62c.23-.23.55-.54.93-.54.31,0,.61.23.92.46l3.7,2.78c.31.23.69.77.69,1.16,0,.62-.91,1.16-2.68,2.31-.17,1.85-.17,8.71-.17,10.79,0,7.32,0,8.1,1.55,10.1,2.93,3.77,9.71,5.16,22.04,5.16,8.25,0,20.12-.92,24.36-1.93,3.63-.85,4.02-1.01,4.78-1.08v.31c-2.3,1.69-4.4,3.94-5.16,8.17M821.3,19.43c-1.92,0-2.16-.54-4.02-5.47-2.07-5.7-5.01-8.17-6.09-9.1l.08-.47c7.4,1.7,13.26,7.1,13.26,11.8,0,2.39-1.86,3.24-3.24,3.24M872.17,32.61h-35.69c-1.92,0-5.62.07-9.02.69l-1.54-3.08c5.24.46,10.79.54,11.79.54h7.4v-12.56h-10.32c-1.47,2.77-3,5.24-6.87,9.17l-.3-.08c2.62-6.62,5.23-13.48,5.23-20.5,0-1,0-1.31-.16-1.93l6.95,2.93c.54.24.85.7.85,1.16,0,.62-.31.92-2,1.53-1.08,2.32-1.7,3.7-2.71,5.86h9.26c0-8.25-.46-11.64-1.54-14.49l8.25,2.24c.53.15,1.08.38,1.08,1.08,0,.54-.7,1.16-2.47,2.24,0,1.46-.07,7.63-.07,8.94h7.71l2.85-3.39c.46-.54.93-1,1.24-1,.38,0,1,.38,1.47.76l4.39,3.47c.39.31.77.62.77,1.16,0,.7-.61.85-1.16.85h-17.26c-.08,3.7-.16,9.02,0,12.56h11.87l3-3.85c.32-.46.78-1.01,1.24-1.01s1.09.54,1.47.85l4.69,3.85c.39.31.78.61.78,1.23,0,.69-.62.77-1.16.77M862.68,43.71c0,2.08.69,11.49.69,13.18,0,2.31-1.93,3.47-3.85,3.47-2.23,0-2.16-1.78-2.01-4.16h-18.33c.15,1.47.15,2.39-.32,3.23-.7,1.15-2.93,1.54-3.32,1.54-1.92,0-1.92-1.46-1.92-2.01,0-.84.38-7.47.38-8.85,0-3.09-.15-10.57-.69-13.27l7.47,3.55h15.82l2.3-2.39c.23-.31.61-.69.93-.69.38,0,.69.31.92.46l3.7,2.7c.23.16.45.55.45.86,0,.69-.69,1.23-2.23,2.39M857.52,42.24h-18.33v12.1h18.33v-12.1Z"/>
      <rect class="cls-1" x="892.68" y="38.9" width="75.3" height="2.08"/>
      <rect class="cls-1" x="271.04" y="38.9" width="75.3" height="2.08"/>
    </g>
  </g>
</svg>