<svg width="23" height="17" viewBox="0 0 23 17" fill="none" xmlns="http://www.w3.org/2000/svg">
<path d="M20.9785 0H2.02148C0.909219 0 0 0.905176 0 2.02148V14.1504C0 15.2671 0.909668 16.1719 2.02148 16.1719H20.9785C22.0908 16.1719 23 15.2667 23 14.1504V2.02148C23 0.904727 22.0903 0 20.9785 0ZM20.6681 1.34766C20.0145 2.00352 12.3373 9.70537 12.022 10.0216C11.7587 10.2858 11.2412 10.2862 10.9776 10.0216L2.33189 1.34766H20.6681ZM1.34766 13.9024V2.269L7.14572 8.08594L1.34766 13.9024ZM2.33189 14.8242L8.09672 9.04053L10.023 10.9731C10.8122 11.765 12.1869 11.7646 12.9761 10.9731L14.9028 9.04053L20.6677 14.8242H2.33189ZM21.6523 13.9024L15.8543 8.08594L21.6523 2.269V13.9024Z" fill="white"/>
</svg>
