<?xml version="1.0" encoding="UTF-8"?>
<svg id="_レイヤー_2" data-name="レイヤー 2" xmlns="http://www.w3.org/2000/svg" viewBox="0 0 204.09 61.24">
  <defs>
    <style>
      .cls-1 {
        fill: #ffe100;
      }
    </style>
  </defs>
  <g id="B">
    <g>
      <g>
        <g>
          <path d="M18.77,24.01c.88.33,1.31.82,1.31,1.9-.03,1.01-.2,2.19-.26,3.4-.03.26-.49.23-.49,0-.33-3.8-3.24-5.14-6.58-5.14-5.33,0-7.95,3.7-7.88,9.85.07,6.74,3.66,9.62,8.44,9.62,4.22,0,5.76-1.83,6.25-4.97,0-.26.49-.29.49,0,.03.75.03,1.7.03,2.26-.07,2.36-.59,2.52-1.67,3.01-.79.36-2.49.82-5.2.82-7.2,0-12.01-3.76-12.07-10.37-.07-7.03,5.01-11.22,11.91-11.22,2,0,3.99.2,5.73.85Z"/>
          <path d="M27.73,40.24c.07,2.88.36,3.47,2,3.6.23,0,.26.43,0,.43-.98-.03-2.78-.1-3.83-.1s-2.72.07-3.57.1c-.26,0-.2-.43,0-.43,1.93-.26,1.9-.82,2.03-3.6.07-1.11.07-4.58.07-5.69,0-2.55,0-5.76-.07-6.97-.16-2.78-.16-3.27-2.09-3.53-.26-.03-.26-.43,0-.43.85.03,2.65.1,3.66.1,1.08,0,2.85-.07,3.73-.1.23,0,.26.39,0,.43-1.64.13-1.86.65-1.93,3.53-.07,1.9-.07,4.51-.07,6.74,0,1.31.03,4.84.07,5.92Z"/>
          <path d="M51.06,28.66c-.03.23-.43.2-.43,0-.07-2.52-1.31-3.37-2.88-3.47-2-.13-2.62-.13-4.52-.13-.07.39-.1,1.67-.1,2.49-.03,4.71-.03,10.21,0,12.96.03,2.98.59,3.14,2.52,3.34.23,0,.29.43,0,.43-.95-.03-3.01-.1-4.09-.1-.36,0-3.21.07-4.09.1-.26,0-.23-.43,0-.43,1.24-.23,2.26-.13,2.29-3.14.03-2.94,0-8.67-.03-13.25,0-.69-.03-2-.1-2.39-1.57,0-2.98.03-3.99.1-2.58.13-3.3,1.08-3.57,3.47-.03.2-.43.2-.43,0-.03-.59-.03-3.37-.03-3.83.03-1.15.13-1.44.29-1.44s.43.23.98.26c1.15.07,3.53.23,8.18.23,3.83,0,7.88-.16,9.13-.23.46-.03.69-.29.85-.29.13,0,.16.2.16,1.01,0,.69-.1,3.53-.16,4.32Z"/>
          <path d="M60.97,36.87c0-.72-.1-1.11-.46-1.77-1.54-2.81-4.02-7.26-5.3-9.16-.92-1.37-1.64-1.73-3.34-1.9-.36,0-.46-.43,0-.43,1.31,0,3.24.1,4.06.1.98,0,2.78-.1,3.96-.1.52,0,.33.43,0,.43-1.57.16-1.47.72-.95,1.77.92,1.86,3.34,6.35,4.65,8.54,1.08-2.06,3.11-6.22,3.96-8.05.92-1.96.85-2.03-.52-2.26-.29,0-.43-.43,0-.43,1.15,0,2.03.1,2.91.1.75,0,1.83-.1,2.88-.1.39,0,.26.43,0,.43-1.34.16-2.03.23-3.17,1.96-1.44,2.16-3.89,6.74-5.04,8.96-.26.52-.39.85-.39,1.9v3.99c0,2.94.49,2.75,2.29,2.98.26,0,.26.43,0,.43-1.44-.03-3.08-.1-3.8-.1s-2.29.07-3.76.1c-.26,0-.23-.43,0-.43,1.41-.23,2.03-.29,2.03-2.98v-3.99Z"/>
          <path d="M98.2,23.98c.85.29,1.41.82,1.41,1.9,0,1.01-.2,2.26-.26,3.47-.03.23-.49.2-.49,0-.36-3.73-3.04-5.17-6.51-5.17-5.76,0-8.11,4.06-8.11,9.72,0,6.18,2.91,9.75,8.67,9.75.85,0,2.32-.13,2.98-.29.59-.13.72-.46.72-1.15,0-1.64,0-2.68-.03-4.02-.07-2.39-1.31-2.39-2.52-2.62-.23,0-.23-.36,0-.36,1.01.03,2.78.1,3.89.1.72,0,2.75-.07,3.47-.1.26,0,.26.33,0,.36-1.21.33-1.54.69-1.6,3.44-.03.92,0,1.96,0,2.85,0,.52.03,1.28.07,1.77-1.41.75-4.91,1.15-7.23,1.15-7.03,0-12.14-3.44-12.14-10.57,0-6.25,4.55-11.03,11.88-11.03,2.26,0,4.06.2,5.82.82Z"/>
          <path d="M111.94,23.69c.2-.36.26-.43.39-.43.1,0,.16.07.33.46.43,1.18,2.13,5.89,3.99,10.47,1.01,2.49,2.06,4.87,3.08,7.26.79,1.83,1.31,2.19,2.81,2.39.23,0,.29.43.03.43-1.24-.03-3.14-.1-4.51-.1-.79,0-2.09.07-2.88.1-.26,0-.26-.43-.03-.43,1.24-.13,1.54-.52,1.01-1.96-.56-1.54-1.28-3.27-2.09-5.37h-6.02c-.49,1.31-1.41,3.53-1.9,5.27-.52,1.8.33,1.93,1.41,2.06.23,0,.26.43,0,.43-1.05-.03-2.55-.1-3.17-.1-.88,0-2,.07-3.11.1-.26,0-.2-.43,0-.43.82-.13,1.77-.2,2.65-1.83,1.01-1.86,2.09-4.45,3.21-7.07,4.29-9.98,4.61-10.83,4.81-11.25ZM111.06,28.86c-.39.88-.72,1.67-1.18,2.78-.65,1.64-1.08,2.78-1.44,3.73.69.03,1.34.03,2.39.03,1.21,0,2.29,0,2.81-.03-1.11-2.91-2.26-5.73-2.58-6.51Z"/>
          <path d="M124.54,33.5c0-2.42.03-4.32-.07-6.84-.07-1.83-.59-2.45-2.29-2.62-.26,0-.29-.43,0-.43.75.03,2.39.1,3.21.1,1.05,0,3.5-.2,5.82-.13,5.63.16,6.64,3.37,6.64,5.33,0,2.42-1.6,4.35-4.06,5.53.49.79,1.93,2.94,3.37,4.74,1.57,2,2.52,2.98,3.66,3.86.82.62,1.73.72,2.36.79.26,0,.29.43,0,.43-.69.07-3.4.03-4.16-.1-2.32-.39-3.34-1.31-5.79-4.94-.98-1.47-1.73-2.75-2.36-3.83-1.01.1-2.22.07-3.21-.03,0,2.19.03,4.19.07,4.94.13,3.08.39,3.34,2.29,3.53.26,0,.33.43,0,.43-1.24-.03-3.66-.16-4.32-.16-.79,0-2.22.13-3.37.16-.29,0-.23-.43,0-.43,1.7-.23,2.09-.29,2.16-3.5.07-2.36.03-4.51.03-6.84ZM130.07,24.67c-1.08-.1-1.7-.1-2.36-.07,0,.72-.03,1.08-.03,9.59,1.28.23,2.49.26,3.8.13,2.09-.2,3.01-1.9,3.01-4.51,0-2.94-1.47-4.87-4.42-5.14Z"/>
          <path d="M152.68,44.53c-2.62,0-4.81-.36-5.99-.36-.49,0-2.52.07-3.83.1-.26,0-.23-.39,0-.43,2.62-.26,2.58-1.01,2.68-4.38.03-1.11.07-4.65.07-5.76,0-2.55-.03-5.4-.07-6.51-.07-2.42-.65-2.98-2.39-3.14-.23,0-.23-.43,0-.43.82.03,2.62.1,3.44.1,1.15,0,4.35-.1,5.56-.1,7.33,0,12.07,3.66,12.07,10.47,0,6.31-4.84,10.44-11.55,10.44ZM152.25,24.7c-1.7-.13-2.88-.07-3.44-.03v10.53c0,3.3,0,5.53.13,6.81.1.82.52.98.85,1.11.72.26,1.83.46,2.94.46,5.76,0,7.79-4.12,7.79-9.29,0-5.95-3.57-9.23-8.28-9.59Z"/>
          <path d="M170.15,40.76c.07,1.96.46,2.06,2.16,2.09,1.37.03,1.8.03,2.62,0,2.75-.07,3.86-1.96,4.25-4.02.03-.23.43-.26.43,0,0,1.24,0,3.5-.16,4.32-.13.72-.69,1.15-1.93,1.15-1.64,0-6.02-.13-9.13-.13-.72,0-2.58.07-3.7.1-.26,0-.23-.43,0-.43,1.73-.2,2.09-.49,2.16-3.3.07-2.29.07-4.74.07-7.07,0-2,0-3.8-.07-5.86-.07-2.72-.1-3.3-2.26-3.57-.23,0-.29-.43,0-.43,1.08.03,2.75.1,3.83.1,2.06,0,6.58-.07,8.31-.1.95,0,1.41.03,1.41.82,0,.85-.23,2.68-.39,3.8-.03.23-.46.23-.43,0-.03-1.64-.95-2.85-2.58-3.11-1.6-.26-2.78-.2-4.61-.16-.03,2.72-.03,4.84-.03,7.82,1.34.07,4.06.1,6.05-.03.95-.07,1.01-.49,1.28-.33.1.07.03.33-.03.98-.07.65-.23,1.77-.33,2.09-.07.23-.43.23-.43,0-.03-1.15-.85-1.31-2.19-1.37-.59-.03-3.3-.03-4.35,0-.03,1.6,0,4.58.07,6.64Z"/>
          <path d="M201.26,36.41c-.03,1.73-.03,4.94-.03,7.52,0,.59-.03.69-.1.72-.16.07-.23-.07-.72-.56-1.9-1.96-5.23-5.1-8.77-8.38-3.08-2.85-5.46-5.07-7.03-6.41.03,2.52.1,7.59.29,12.17.07,1.31.62,2.16,2.62,2.36.23,0,.29.43,0,.43-1.31-.03-3.08-.1-3.7-.1-.56,0-1.7.07-2.58.1-.26,0-.23-.43,0-.43,1.18-.23,1.6-.52,1.73-2.19.26-3.63.33-9.1.33-11.78,0-1.8,0-4.61-.03-5.89,0-.49,0-.62.13-.65.1-.03.23.03.69.52,2.26,2.42,5.53,5.66,8.51,8.38,2.85,2.62,5.07,4.61,7.3,6.45,0-3.86.07-7.07-.16-11.61-.13-2.39-.39-2.75-2.22-3.01-.23,0-.26-.43,0-.43.88.03,2.55.1,3.14.1.49,0,1.64-.07,2.52-.1.26,0,.2.43,0,.43-1.24.2-1.57,1.08-1.64,2.58-.07,1.73-.2,5.4-.26,9.78Z"/>
        </g>
        <g>
          <path class="cls-1" d="M18.21,11.74l4.04-2.93-1.01-.74,1.01-.73-4.04-2.94-1.02.74-2.02-1.47,1.01-.73L12.14,0l-1.01.73-1.01-.73-4.05,2.93,1.01.73-2.02,1.47-1.01-.74L0,7.34l1.01.73-1.01.74,4.05,2.93,1.01-.73,2.02,1.47-1.01.74,4.05,2.94,1.01-.74,1.01.74,4.04-2.94-1.01-.74,2.02-1.47,1.02.73ZM11.13,9.54l-2.02-1.47,2.02-1.47,2.02,1.47-2.02,1.47Z"/>
          <g>
            <path d="M49.24,7.62l-.86-1.03h-5.09c.08-.22.14-.42.21-.63h6.52v-1.79h-6.12c.14-1.07.04-1.68.04-1.68h-2.05c.03.57-.01,1.14-.1,1.68h-3.93v1.79h3.48c-1.12,3.25-3.55,5.58-3.55,5.58l1.65,1.28c1.23-1.4,2.13-2.72,2.79-3.91.36.62.86,1.2,1.44,1.74-1.65,1.08-3.32,1.66-3.32,1.66l1.4,1.38c1.34-.37,2.52-1.02,3.53-1.77,1.59,1.1,3.11,1.77,3.11,1.77l1.54-1.38c-1.3-.64-2.31-1.22-3.09-1.72,1.55-1.52,2.41-2.98,2.41-2.98M45.24,9.43c-.99-.84-1.12-1.3-1.12-1.3h2.19c-.28.47-.65.9-1.07,1.3"/>
            <path d="M58.99,6.17l-1.48,1.2v-.92c.57-.65.97-1.14,1.11-1.45h3.56v-2h-11.51v2h5.14c-1.52,2.21-5.91,4.47-5.91,4.47l1.71,1.39c1.46-.82,2.61-1.59,3.53-2.28v4.88h2.37v-5.75c1.55,1.83,3.62,3.07,3.62,3.07l1.65-1.48c-2.08-1.17-3.79-3.13-3.79-3.13"/>
            <path d="M27.53,2.53c-1.21,3.53-3.19,5.11-3.19,5.11l1.43,1.38.65-.78v5.34s1.87,0,1.87,0V5.35c.8-1.51,1.12-2.56,1.12-2.56l-1.88-.27Z"/>
            <path d="M33.89,9.73h2.83v-1.65h-2.83v-1.88h3.06v-1.63h-3.2l.87-.82c-.44-.47-2.79-1.41-2.79-1.41l-1.27,1.2c.43.17,1.32.66,1.97,1.02h-3.55v1.63h2.81v1.88h-2.83v1.65h2.83v1.87h-3.27v1.71h8.64v-1.71h-3.27v-1.87Z"/>
            <path d="M70.12,12.2v-.37c-.55.05-1.41.09-2.33.12v-.37h2.37v-1.2h-2.37v-.42h2.54v-3.76h-2.54v-.45h2.54v-1.2h-2.54v-.35c2.41-.03,2.73-.19,2.73-.19l-.94-1.42c-2.4.51-6.27.37-6.27.37l.46,1.19c.85.03,1.6.04,2.25.05v.35h-2.71v1.2h2.71v.45h-2.48v3.76h2.48v.42h-2.48v1.2h2.48v.42c-1.46.04-2.71.06-2.71.06l.54,1.25c2.17-.14,6.27-.37,6.27-.37v-.68l-.03-.03s.01-.01.03-.03M68.67,8.9h-.84v-.39h.84v.39ZM67.8,7.22h.84v.4h-.84v-.4ZM66.03,8.93h-.84v-.38h.84v.38ZM66.03,7.62h-.84v-.4h.84v.4Z"/>
            <path d="M75.71,4.57h-2.06c.01-1.24-.05-2.08-.05-2.08h-1.8c.04.74.06,1.44.06,2.08h-1.4l.17,1.8h1.17c-.28,4.25-1.5,5.65-1.69,5.84v.06l1.22,1.28c1.51-1.85,2.05-4.8,2.23-7.18h.45c.03,1.11-.08,4.64-.08,4.64,0,.88-.77.94-.77.94h-.8l1,1.51c2.62-.28,2.34-2.91,2.34-2.91v-5.98Z"/>
            <path d="M85.69,4.82h2.21v-1.68h-4.44v-.65h-2.11v.65h-4.47v1.68h2.12l.24.69h-2.33c.23,4.62-1.17,6.78-1.17,6.78l1.42,1.02c.7-1.14,1.09-2.47,1.3-3.62l1.01.88c.14-.1.28-.25.43-.43v1.22h2.19v.43h-4.05v1.51h9.84v-1.51h-3.48v-.43h2.34v-1.5h-2.34v-.51h2.79v-1.53h-2.79v-.68h-2.31v.68h-.84c.1-.21.15-.34.15-.34-.29-.19-.71-.43-1.02-.6h7.75v-1.39h-2.68l.24-.69M78.57,9.09c.18-1.26.16-2.19.16-2.19h1.14c-.36.88-.94,1.71-1.3,2.19M80.44,9.37h1.65v.51h-1.99c.12-.16.23-.33.34-.51M83.35,5.51h-1.99l-.21-.69h2.42l-.21.69Z"/>
          </g>
          <g>
            <path d="M95.03,11.08c1.49-.12,3.37-.78,3.37-3.34,0-1.99-1.19-2.64-2.23-2.75-.01.24-.32,7.12-3.73,7.12-1.97,0-2.61-2.15-2.61-3.65,0-3.59,2.74-5.49,5.69-5.49,3.35,0,5.1,2.09,5.1,4.86,0,.82-.16,2.77-1.69,4.07-.78.67-1.9,1.07-3.22,1.2l-.68-2.03ZM91.86,8.51c0,.28.06,1.32.66,1.32.74,0,1.39-2.02,1.64-4.73-1.25.37-2.31,1.57-2.31,3.41Z"/>
            <path d="M102.17,6.26v-2.19h5.67v-1.94h2.3v1.94h2.77v2.19h-2.76v5.18c.01.41-.12,1.11-.62,1.51-.5.4-1.11.42-1.88.42-.59,0-1.23-.01-1.52-.01l-.34-2.26c.32.03,1.27.08,1.51.08.29,0,.58-.04.58-.42l-.03-2.55c-1.6,2.01-3.58,3.2-4.95,3.94l-1.36-1.8c2.09-.96,3.95-2.35,5.47-4.08h-4.83Z"/>
            <path d="M122.68,6.6v2.4h-9.23v-2.4h9.23Z"/>
            <path d="M124.4,11.78c1.37-.26,3.21-.83,5.02-2.42-.73-.57-1.72-1.25-2.92-1.86-.69.62-.99.83-1.35,1.06l-1.53-1.76c1.8-1.08,2.68-2.3,3.33-3.8h5.28l1.94,2.43c-.46,1.78-1.76,6.8-8.56,8.43l-1.22-2.07ZM128.48,5.11c-.34.5-.46.66-.66.91,1.23.54,2.05.98,2.98,1.68.65-1.02.92-2.05,1.07-2.59h-3.39ZM133.38,1.87c.69.73,1.15,1.48,1.61,2.32l-.91.67c-.53-1.03-.87-1.55-1.56-2.36l.86-.63ZM135.03,1.33c.71.81,1.04,1.39,1.58,2.34l-.92.67c-.48-.98-.85-1.55-1.53-2.38l.87-.63Z"/>
            <path d="M144.6,6.6v2.4h-9.23v-2.4h9.23Z"/>
            <path d="M147.5,3.98c.67.33,1.8.88,3.39,1.95.7-1.2,1.23-2.44,1.62-3.79l2.44.74c-.46,1.19-1.1,2.76-2.17,4.44,1.24,1,2.18,1.93,2.59,2.34l-1.9,2.02c-.34-.41-1.14-1.32-2.23-2.31-.79.88-2.48,2.73-5.48,4.05l-1.49-1.85c2.43-1.06,3.8-1.99,5.23-3.65-1.61-1.2-2.83-1.85-3.49-2.19l1.48-1.76Z"/>
            <path d="M163.57,13.33h-2.46v-5.08c-1.9,1.03-3.21,1.47-4.02,1.74l-1.18-2.03c2.84-.91,6.31-2.48,9.39-6.12l2.05,1.45c-1.49,1.61-2.32,2.27-3.79,3.38v6.66Z"/>
            <path d="M176.08,10.1c-.78-.54-2.54-1.76-4.81-2.64v5.88h-2.51V2.06h2.51v2.97c3.06.98,4.9,1.99,6.05,2.65l-1.24,2.42ZM174.39,2.4c.52.67.92,1.44,1.4,2.52l-1.25.65c-.41-1.07-.74-1.72-1.33-2.56l1.19-.61ZM176.22,1.56c.66.83,1.11,1.74,1.45,2.5l-1.25.59c-.46-1.07-.71-1.58-1.39-2.54l1.19-.55Z"/>
            <path d="M188.15,12.31h-.62l-.37-1.9h.34c.49,0,.54-.35.54-.79,0-1.31-.42-1.94-.9-2.65v6.43h-1.79v-2.09c-.48.73-.89.92-1.27.92-.07,0-.37,0-.65-.19v1.13h-4.65v-1.78h4.11c-.47-.8-.62-1.6-.91-4.05h-1.13v1.69c.89-.11,1-.13,1.24-.18v1.73c-1.2.22-3.04.37-3.42.4l-.18-1.76c.25,0,.3,0,.49-.01V2.55c2.37-.08,3.83-.22,5.43-.62l.72,1.75c-.34.08-.61.17-1.52.25-.01.32-.01.72.02,1.56h1.42v1.86h-1.3c.05.54.23,2.23.64,2.23.19,0,.35-.44.43-.67l.54.83V2.3h4.49v1.85c-.14.71-.5,1.81-.78,2.62.54.92,1.02,1.76,1.02,3.24,0,2.31-1.25,2.31-1.92,2.31ZM181.8,4.09c-.28.01-.47.02-.96.05v1.36h1c-.04-.83-.04-1.19-.04-1.4ZM187.13,4.16v2.8c.6-1.69.68-1.94.84-2.8h-.84Z"/>
            <path d="M194.68,7.29c-.64.08-1.28.13-2.23.2l-.41-1.48h-.89v-3.21h4.32v-.79h2.04v.79h4.38v3.21h-1.64l.23.34c-1.09.29-2.92.56-3.79.7v.84l5.39-.56.12,1.82-5.51.58v1.39c0,.35.13.35.32.35h2.43c.16,0,.26-.12.32-.35.02-.08.11-.91.1-1.32l2,.44c-.08,1.96-.13,3.04-1.39,3.04h-4.78c-.66,0-1.01-.49-1.01-1.08v-2.26l-3.73.4-.14-1.82,3.88-.41v-.82ZM199.92,5.5v-.96h-6.81v1.13c.85-.06,4.15-.34,6.25-.97l.55.8Z"/>
          </g>
        </g>
      </g>
      <g>
        <path d="M4.96,56.32s.08.06.08.11c0,.07-.04.09-.19.21-.01.3-.01.59-.01.88,0,.59.01,1.55.02,2.11,0,.37.04.74.04,1.11,0,.26-.05.45-.36.45-.17,0-.25-.06-.25-.24,0-.4.07-1.21.08-1.7.01-.74.02-1.47.03-2.21-.31.44-.68.84-1.12,1.16l-.04-.03c.52-.75.97-1.56,1.33-2.4.09-.21.22-.53.28-.74.04-.13.06-.28.07-.42l.64.37c.06.04.1.06.1.13,0,.12-.13.17-.3.21-.15.32-.31.63-.48.94l.1.06ZM7.51,58.2h.8l.24-.33s.08-.09.11-.09.08.04.13.07l.45.33c.06.04.07.07.07.11,0,.06-.05.08-.11.08h-1.7v2.16h1.21l.31-.36c.05-.06.08-.09.11-.09.03,0,.08.04.13.08l.41.36s.07.06.07.11c0,.06-.06.07-.11.07h-3.63c-.26,0-.57.01-.84.06l-.13-.28c.36.03.72.04,1.09.04h.87v-2.16h-.49c-.28,0-.56.01-.84.06l-.14-.28c.36.04.72.05,1.09.05h.38v-1.79h-.79c-.28,0-.56.01-.83.06l-.14-.28c.36.03.72.05,1.09.05h2.16l.23-.31s.1-.14.14-.14c.04,0,.13.08.16.1l.43.33s.07.06.07.11c0,.06-.06.08-.11.08h-1.91v1.79ZM7.64,55.73c0,.19-.09.34-.3.34-.24,0-.3-.23-.35-.43-.07-.27-.27-.71-.44-.93l.04-.04c.41.18,1.05.53,1.05,1.06Z"/>
        <path d="M14.37,57.6c-.41,1.42-1.24,2.79-2.53,3.56l-.02-.05c.86-.76,1.37-1.69,1.77-2.75.29-.77.43-1.36.56-2.17h-1.28c-.28,0-.56,0-.84.06l-.14-.28c.36.03.72.05,1.09.05h1.19c.04-.31.07-.72.07-1.03,0-.15-.01-.25-.06-.39l.8.26s.11.06.11.1c0,.07-.1.13-.26.22-.05.28-.09.56-.14.84h2.49l.28-.36s.06-.09.11-.09c.04,0,.09.04.13.07l.45.36s.07.06.07.11c0,.06-.06.08-.11.08h-3.45c-.07.42-.13.82-.24,1.24h1.67l.24-.18s.09-.07.13-.07c.03,0,.08.04.1.06l.33.31s.06.06.06.11c0,.09-.19.16-.33.21-.21.62-.48,1.21-.87,1.73.76.6,1.68.89,2.64.94v.05c-.28.1-.6.36-.72.63-.84-.25-1.56-.67-2.16-1.32-.65.73-1.49,1.14-2.45,1.32v-.04c.86-.38,1.55-.91,2.14-1.65-.43-.59-.7-1.21-.79-1.94h-.04ZM15.39,59.27c.37-.53.59-1.03.74-1.67h-1.61c.16.63.44,1.19.87,1.67Z"/>
        <path d="M23.74,56.93c.07.02.11.05.11.11,0,.1-.16.2-.24.24,0,.43-.01.85-.01,1.28,0,.6,0,1.19.02,1.78,0,.13.02.48.02.55,0,.23-.23.34-.37.34-.18,0-.22-.09-.22-.25,0-.11.03-.65.04-.82.01-.64.03-1.28.03-1.92,0-.37,0-.73-.02-1.1-.76,1.03-1.7,2.04-2.86,2.61l-.03-.04c1-.87,2.37-2.56,3.01-3.73.08-.14.12-.28.16-.44h-2.01c-.28,0-.56,0-.84.06l-.14-.28c.36.03.73.05,1.09.05h4.12l.33-.38c.06-.06.09-.08.11-.08.02,0,.07.01.13.06l.49.38s.07.06.07.11c0,.06-.06.08-.11.08h-2.8l.26.22s.08.08.08.12c0,.09-.11.1-.3.12-.17.27-.34.54-.52.79l.4.13ZM25.83,57.81c.31.25.77.7.77,1.11,0,.17-.1.31-.28.31-.22,0-.35-.19-.44-.35-.39-.66-.96-1.45-1.64-1.82v-.04c.57.12,1.16.43,1.6.79Z"/>
        <path d="M31.63,56.89l.16-.2s.08-.08.11-.08c.03,0,.1.04.13.07l.25.23s.06.07.06.11c0,.07-.01.09-.18.2,0,.12,0,.23,0,.35,0,.31.01.62.01.94,0,.22-.1.38-.33.38-.09,0-.13-.08-.13-.14v-.04h-.74v.64h.53l.17-.21c.04-.06.1-.11.14-.11.03,0,.08.03.13.07l.3.23s.07.06.07.11c0,.06-.06.07-.11.07h-1.23v.65c.45-.08.91-.15,1.36-.25v.06c-.67.32-2.16.76-2.9.92-.07.13-.1.17-.15.17s-.1-.04-.13-.09l-.32-.62c.1.01.16.02.27.02.38,0,1.04-.09,1.43-.15v-.72h-.55c-.26,0-.58.01-.84.06l-.13-.28c.36.04.72.05,1.09.05h.43v-.64h-.73c0,.16-.03.2-.07.25-.06.06-.18.11-.26.11-.12,0-.13-.11-.13-.21,0-.57.02-1.14.02-1.71,0-.14-.03-.45-.06-.57l.58.32h.65v-.59h-.7c-.28,0-.56.01-.83.06l-.14-.28c.36.03.72.05,1.09.05h.57v-.55c-.39.06-.78.09-1.17.09-.11,0-.22,0-.33,0v-.05c.69-.14,1.54-.36,2.19-.62.14-.06.33-.16.45-.24l.44.39s.06.06.06.1c0,.09-.11.09-.17.09-.05,0-.11-.01-.15-.03-.28.09-.57.15-.87.2v.62h.85l.23-.28s.09-.11.14-.11c.03,0,.07.02.13.07l.36.31s.07.06.07.11c0,.06-.06.08-.11.08h-1.67v.59h.65ZM30.53,57.06h-.74v.63h.74v-.63ZM30.53,57.86h-.74v.67h.74v-.67ZM30.97,57.69h.75v-.63h-.75v.63ZM30.97,58.53h.75v-.67h-.75v.67ZM34.61,56.38s.1-.09.14-.09c.04,0,.09.04.12.06l.28.21c.06.05.09.09.09.14,0,.06-.12.16-.24.24,0,.48,0,.94-.01,1.42-.02.62-.06,1.38-.27,1.97-.18.5-.51.76-1.04.84-.07-.4-.43-.62-.77-.8l.02-.05c.24.06.62.11.87.11.23,0,.31-.05.42-.25.11-.21.14-.44.17-.67.08-.66.16-1.32.16-1.98,0-.22,0-.53-.04-.75h-.73c0,1.76-.38,3.65-2.16,4.44l-.04-.04c.86-.65,1.44-1.7,1.58-2.77.07-.51.11-1.11.12-1.63-.28,0-.55.01-.82.06l-.14-.28c.32.03.64.04.96.05v-.47c0-.6-.04-1.19-.13-1.47l.74.25s.12.06.12.11-.04.09-.09.12c-.06.04-.09.06-.14.11v1.35h.61l.23-.23Z"/>
        <path d="M42.33,55.54l.31-.34c.05-.06.08-.09.11-.09.04,0,.09.04.13.07l.45.35s.07.06.07.11c0,.06-.06.08-.11.08h-1.43l.43.24s.06.04.06.08c0,.11-.2.15-.29.16-.28.33-.53.6-.83.9h1.38l.26-.32c.06-.07.09-.09.11-.09s.06.02.13.07l.47.32s.08.06.08.11c0,.06-.06.08-.11.08h-4.83v.4c0,1.38-.04,2.56-1.2,3.49l-.04-.03c.58-.83.75-1.82.75-2.81,0-.45-.04-1.11-.16-1.54l.7.32h2.29c.16-.36.46-1.01.54-1.38h-2.87c-.28,0-.56.01-.84.06l-.13-.28c.36.03.72.05,1.09.05h1.49c-.01-.3-.04-.56-.11-.85l.74.18s.1.03.1.09c0,.08-.18.18-.25.21v.37h1.5ZM40.19,59.67c-.28,0-.56.01-.83.06l-.14-.28c.36.04.72.05,1.09.05h.35v-.87h-.97c-.3.48-.49.75-.92,1.13l-.04-.02c.39-.73.58-1.16.84-1.94.04-.13.06-.19.08-.33l.62.27s.07.04.07.08c0,.07-.04.09-.25.18-.11.14-.2.3-.29.45h.85c-.01-.45,0-.62-.08-1.08l.69.13c.06.01.09.03.09.09,0,.08-.16.17-.23.21,0,.23,0,.44,0,.66h1.04l.25-.34s.08-.09.11-.09c.03,0,.06.02.13.08l.41.34s.07.07.07.11c0,.06-.06.08-.11.08h-1.9v.87h.84l.21-.26c.04-.06.07-.09.11-.09.03,0,.08.04.12.06l.4.28s.07.06.07.1c0,.06-.06.08-.11.08h-1.65v1.01h1.53l.32-.3s.09-.08.12-.08c.03,0,.06.02.13.07l.43.29s.07.06.07.11c0,.06-.06.08-.11.08h-4.07c-.26,0-.58.01-.84.06l-.13-.28c.36.04.72.05,1.09.05h.99v-1.01h-.47ZM39.94,56.66c0,.16-.11.33-.29.33-.16,0-.22-.11-.3-.33-.1-.29-.23-.59-.45-.81v-.04c.38.12,1.04.38,1.04.84Z"/>
        <path d="M47.47,58.74c0,.33.15.55.37.7.31.21.76.27,1.12.27.3,0,.71-.06,1.03-.11.16-.02.35-.04.48-.04.18,0,.45.08.45.3,0,.16-.16.24-.28.28-.3.09-.9.1-1.23.1-.77,0-1.44-.1-1.82-.5-.19-.2-.3-.47-.3-.74s.06-.43.24-.62c-.03.12-.06.23-.06.36ZM48.63,55.9c.11,0,.35-.02.57-.04.16-.01.32-.03.42-.03.23,0,.66.07.66.36,0,.19-.12.22-.45.25-.14.01-.33.09-.51.18-.22.11-.44.25-.62.35.05-.06.26-.28.37-.44.05-.06.08-.12.08-.14,0-.04-.08-.06-.22-.06-.21,0-.44-.03-.62-.09-.29-.1-.43-.29-.51-.59.24.21.5.26.83.26Z"/>
        <path d="M57.01,56.32c.09-.05.11-.09.11-.13,0-.06-.06-.12-.13-.17-.08-.05-.18-.1-.24-.13.14.03.28.06.43.06.1,0,.2-.02.29-.02.13,0,.28.07.28.23,0,.14-.13.28-.31.4-.31.21-.75.38-.93.44-.09.45-.25,1.16-.4,1.81-.13.53-.27,1.01-.43,1.3-.09.16-.23.38-.45.38-.14,0-.24-.13-.24-.26s.08-.27.18-.42c.21-.28.38-.62.53-.99.23-.57.4-1.19.49-1.73-.17.04-.33.06-.51.06-.44,0-.62-.27-.76-.65.21.21.42.28.7.28.22,0,.43-.05.63-.11.04-.24.06-.49.06-.74,0-.42-.08-.55-.49-.55.13-.11.26-.21.45-.21.25,0,.52.12.52.41,0,.11-.04.29-.08.49-.04.17-.07.34-.1.47.07-.03.27-.12.4-.2ZM57.78,59.08c0,.2.04.42.16.57.18.21.5.33.78.36.26.03.5.04.77.04.18,0,.51.07.51.31,0,.26-.31.28-.49.28-.21,0-.69-.06-1.02-.16-.23-.06-.44-.18-.62-.35-.2-.18-.31-.43-.31-.68s.09-.46.23-.66c0,.09-.01.2-.01.29ZM59.28,56.49c.31,0,.91.19.91.58,0,.18-.1.22-.26.22-.36,0-.6.09-.92.27.21-.21.43-.46.43-.56,0-.19-.62-.22-.76-.22-.13,0-.26,0-.38.01.35-.16.66-.31.99-.31ZM59.2,55.3c.18,0,.5.04.72.17.19.11.37.28.37.48,0,.11-.08.22-.2.22-.11,0-.16-.09-.22-.16-.21-.31-.54-.55-.88-.7.08,0,.13,0,.21,0ZM59.81,54.68c.29,0,.65.09.86.27.09.07.16.18.16.28,0,.11-.06.22-.18.22-.1,0-.18-.07-.24-.15-.24-.29-.5-.45-.87-.6.09-.01.19-.02.28-.02Z"/>
        <path d="M64.93,55.1c.26,0,.54.18.54.46,0,.1-.03.25-.07.43s-.09.38-.13.53c.04,0,.07-.02.11-.02.11,0,.23.1.23.21s-.08.25-.17.37c-.1.13-.21.26-.28.34v.26c.31-.26.59-.48.89-.66.35-.21.72-.34,1.17-.34.56,0,1.04.21,1.31.58.19.26.29.62.29.99s-.07.68-.26.97c-.3.45-.79.76-1.28.94-.43.16-.87.25-1.31.31v-.06c.6-.2,1.23-.45,1.68-.92.38-.38.64-.88.64-1.43,0-.67-.38-1.18-1.07-1.18-.4,0-.83.14-1.21.37-.33.19-.62.43-.85.69v.26c0,.41.04,1.11.08,1.51.01.15.04.4.04.5,0,.2-.11.47-.35.47-.18,0-.21-.23-.21-.37v-.05c0-.21-.04-.43-.09-.62-.07-.24-.16-.45-.26-.71-.14.21-.27.42-.41.62-.06.1-.18.18-.3.18-.14,0-.19-.13-.19-.26,0-.14.04-.26.13-.38.08-.11.19-.23.31-.36.09-.09.18-.2.26-.3-.11-.2-.3-.59-.4-.81-.06-.12-.08-.23-.08-.33,0-.25.09-.28.36-.3.18,0,.31-.04.45-.1.15-.07.31-.17.45-.26,0-.14,0-.31.02-.47.01-.18.02-.36.02-.44,0-.33-.17-.47-.48-.51.13-.09.28-.15.44-.15ZM64.88,57.44c0-.12,0-.24,0-.36-.07.06-.19.16-.31.23-.09.06-.18.09-.26.09-.06,0-.13-.03-.26-.08-.04-.01-.07-.03-.11-.03-.07,0-.11.07-.11.14,0,.04.04.15.09.28.09.22.23.54.29.66.2-.28.43-.62.65-.93ZM64.71,59.37s.06.08.1.08.05-.06.05-.12v-1.07c-.06.09-.13.17-.2.26-.07.1-.13.2-.21.3.08.18.16.39.26.55Z"/>
        <path d="M73.57,54.86c.28,0,.58.16.58.48,0,.16-.08.43-.19.7-.14.33-.25.69-.28,1.01.14-.4.32-.75.65-1.04.17-.15.4-.26.63-.26.36,0,.61.2.77.48.23.39.31.94.31,1.33,0,.64-.15,1.35-.49,1.9-.26.43-.66.79-1.09,1.05-.4.24-.83.4-1.27.52v-.06c.61-.27,1.16-.69,1.58-1.23.5-.65.69-1.43.69-2.29,0-.24-.01-.7-.12-1-.09-.26-.26-.45-.49-.45-.28,0-.57.27-.71.49-.21.32-.31.7-.31,1.07,0,.16.01.33.07.48.05.14.11.3.11.38,0,.14-.09.23-.23.23-.21,0-.35-.14-.44-.33-.12-.23-.16-.54-.16-.74,0-.38.18-1.09.31-1.6.07-.28.11-.45.11-.63,0-.26-.18-.35-.4-.38.12-.06.24-.11.38-.11Z"/>
        <path d="M84.85,59.42c.35-.46.52-.96.52-1.58,0-.59-.18-1.21-.62-1.62-.35-.33-.89-.53-1.38-.53-.12,0-.24.01-.35.04.11.3.15.6.15.92,0,.75-.23,1.52-.61,2.16-.21.35-.74,1.09-1.19,1.09-.28,0-.52-.23-.67-.45-.23-.32-.31-.75-.31-1.14,0-.68.26-1.34.73-1.83.57-.6,1.45-.97,2.28-.97.64,0,1.28.23,1.77.65.51.43.75,1.09.75,1.75,0,.76-.27,1.34-.7,1.77-.57.57-1.43.89-2.33.97v-.06c.72-.21,1.51-.58,1.97-1.18ZM81.76,56.28c-.57.48-.89,1.24-.89,1.97,0,.28.04.59.2.82.07.11.18.22.32.22.24,0,.66-.52.82-.76.43-.65.76-1.46.76-2.24,0-.19-.03-.38-.06-.56-.42.1-.81.26-1.14.54Z"/>
        <path d="M88.7,60.79l-.14-.28c.36.03.73.05,1.09.05h1.81c0-.16,0-.31,0-.46v-2.75h-1.5c-.28,0-.57.01-.84.06l-.14-.28c.36.03.73.04,1.09.04h1.38v-.75c0-.65,0-1.01-.18-1.57l.86.23s.11.04.11.11c0,.05-.06.1-.15.17-.04.03-.09.07-.12.09,0,.57,0,1.14,0,1.72h1.4l.29-.38s.06-.09.11-.09.1.05.13.08l.48.38s.07.06.07.11c0,.06-.06.07-.11.07h-2.36c0,.49,0,.98,0,1.46v1.75h1.88l.35-.38c.05-.06.07-.09.11-.09.04,0,.1.05.13.08l.47.38s.07.06.07.11c0,.06-.06.08-.11.08h-5.34c-.26,0-.58.01-.84.06Z"/>
        <path d="M98.87,57.05l.21-.23c.06-.06.09-.09.12-.09.04,0,.09.05.12.08l.25.23s.06.06.06.11c0,.06-.06.08-.11.08h-.83v2.29c.31-.09.61-.18.9-.29l.03.06c-.39.29-1.43.82-1.89,1.04-.06.14-.1.23-.18.23-.05,0-.09-.04-.11-.09l-.37-.63s.11,0,.16,0c.28,0,.72-.12,1.01-.2,0-.8,0-1.61,0-2.41h-.14c-.28,0-.56.01-.84.06l-.13-.28c.36.03.7.05,1.02.05h.09v-.66c0-.54,0-1.17-.1-1.45l.72.24c.06.02.1.05.1.11,0,.09-.16.21-.24.26-.01.5-.01,1.01-.02,1.51h.17ZM100.95,57.11c0-.27,0-.28,0-.82,0-.5,0-1.01-.11-1.51l.68.23c.06.02.12.05.12.11,0,.06-.09.14-.25.26,0,.35-.01.7-.01,1.06v.48l.69-.31.17-.28c.04-.06.07-.12.11-.12.04,0,.08.01.14.06l.33.21s.07.06.07.11c0,.08-.06.15-.18.25,0,.67,0,1.6-.09,2.04-.11.55-.4.71-.76.8-.05-.27-.21-.45-.43-.6v-.04c.07,0,.15.01.22.01.28,0,.39-.04.48-.22.1-.21.1-1.14.1-1.42,0-.23,0-.46-.01-.69l-.84.38c0,.61.01,1.28.02,1.83,0,.21.02.51.02.68,0,.26-.18.35-.36.35-.13,0-.17-.06-.17-.18,0-.11.01-.33.02-.51.01-.48.01-1.32.02-1.97l-.77.35c0,.09,0,.18,0,.28,0,.26.01,2.13.01,2.24,0,.12.07.21.22.23.11.01,1.05.02,1.29.02.67,0,.87-.01,1.01-.28.11-.2.22-.55.31-.84h.05c0,.17.03.48.07.67.04.15.07.21.17.29.04.03.06.06.06.09,0,.19-.28.48-.76.5-.35.01-.7.02-1.09.02-.35,0-.96,0-1.2-.03-.5-.06-.59-.31-.59-.72,0-.58.01-1.26.02-1.83,0-.16,0-.31,0-.45-.23.1-.48.23-.69.38l-.24-.2c.31-.11.62-.23.93-.37v-1.06c0-.41,0-.6-.08-1.01l.66.23s.11.04.11.1c0,.07-.06.12-.23.23-.01.44,0,.88-.01,1.32l.77-.35Z"/>
        <path d="M106.63,56.46c.11,0,.26-.03.43-.09.22-.07.54-.17.71-.23.33-.11,1.51-.47,2.24-.67.25-.07.45-.11.54-.11.23,0,.73.11.73.41,0,.13-.11.22-.24.22-.08,0-.17,0-.27-.03-.11-.02-.23-.04-.33-.04-.53,0-.96.13-1.33.56-.36.4-.51.84-.6,1.33-.05.29-.07.65-.07.99,0,.26.03.62.18.85.1.16.3.26.45.29.13.03.55.04.76.04.25,0,.45.13.45.33s-.24.28-.49.28c-.16,0-.67-.06-.93-.15-.59-.19-.9-.77-.9-1.55,0-.7.22-1.6.62-2.13.23-.31.55-.57.84-.82-.35.09-.7.23-1.03.36-.49.21-.79.35-1.22.6-.12.07-.25.14-.4.14-.38,0-.58-.37-.58-.71,0-.07,0-.13,0-.21.09.16.23.34.43.34ZM110.41,57.47c.08.09.13.21.13.33s-.08.26-.21.26-.19-.12-.24-.23c-.16-.34-.42-.62-.71-.85.39.06.78.18,1.03.49ZM111.04,56.79c.18.12.32.28.32.49,0,.13-.08.24-.21.24s-.2-.1-.26-.23c-.16-.3-.43-.6-.76-.79.25.03.63.1.92.29Z"/>
        <path d="M113.02,59.04c.5.16,1.01.37,1.36.79.14.18.26.4.26.64,0,.2-.13.41-.34.41-.23,0-.29-.18-.36-.42-.09-.28-.22-.56-.39-.79-.16-.22-.33-.4-.54-.57l.02-.06Z"/>
        <path d="M120.61,59.01c-.11.12-.22.23-.33.35.34.01.98.12.98.57,0,.16-.09.31-.26.31-.13,0-.21-.1-.26-.21-.14-.24-.27-.45-.5-.62-.41.4-.93.8-1.48.97v-.05c.7-.48,1.33-1.22,1.77-1.97.04-.06.08-.14.11-.22h-1.59c0,.45-.23.77-.53.77-.17,0-.27-.11-.27-.28,0-.18.11-.28.29-.43.21-.19.31-.41.39-.68h.03c.06.17.08.28.09.45h4.65l.16-.13s.08-.07.13-.07c.05,0,.1.03.13.06l.48.37s.07.09.07.14c0,.13-.13.15-.5.17-.24.13-.47.28-.7.43l-.04-.05c.09-.21.21-.52.28-.74h-2.76l.27.11s.06.05.06.09c0,.08-.04.11-.16.16-.02,0-.06.03-.09.04-.08.11-.16.21-.25.31h1.6l.21-.18c.06-.06.09-.08.14-.08.05,0,.11.04.14.07l.33.28s.05.07.05.11c0,.11-.07.12-.38.21-1,1.35-2.45,1.94-4.1,1.97v-.06c.96-.14,1.86-.52,2.63-1.1.4-.31.74-.62,1-1.06h-1.77ZM120.67,56.12c-.21,0-.21-.1-.21-.16v-.47h-1.05c-.28,0-.56.01-.84.06l-.14-.28c.36.03.73.04,1.09.04h.94c0-.26,0-.44-.07-.7l.61.13c.06.01.11.03.11.09,0,.09-.11.14-.18.17v.31h1.14c0-.32,0-.46-.09-.71l.65.15c.06.01.1.04.1.09,0,.07-.05.1-.2.18v.28h1.15l.25-.29s.08-.09.12-.09c.03,0,.07.04.13.08l.38.28c.06.04.09.09.09.13,0,.06-.06.07-.11.07h-2.01c0,.09,0,.18,0,.3,0,.09-.02.3-.32.31-.13,0-.16-.07-.16-.16v-.44h-1.14v.23c0,.16,0,.26-.05.31-.05.06-.13.09-.21.09ZM123.16,56.22l.1-.12c.06-.07.09-.09.12-.09.02,0,.06.02.13.06l.27.18s.06.06.06.11c0,.06-.05.11-.19.2v.48c0,.13,0,.28,0,.4,0,.21-.23.27-.35.27-.1,0-.13-.04-.13-.12v-.14h-3.41c0,.19-.16.25-.31.25-.19,0-.2-.08-.2-.14,0-.38.03-.76.03-1.14,0-.19-.01-.31-.05-.49l.61.28h3.31ZM119.77,57.28h.82v-.89h-.82v.89ZM121.05,57.28h.82v-.89h-.82v.89ZM123.19,56.39h-.87v.89h.87v-.89Z"/>
        <path d="M129.9,55.67c.09-.04.12-.09.12-.13,0-.07-.08-.14-.21-.23.13.05.28.09.42.09.21.01.37.03.37.2,0,.16-.15.28-.35.38-.29.14-.7.26-.87.3-.09.19-.18.38-.28.56-.11.21-.22.41-.35.6.21-.13.44-.25.7-.25.48,0,.6.41.66.8.2-.4.43-.77.79-1.06.26-.21.58-.38.92-.38.31,0,.68.24.68.58,0,.26-.2.45-.4.56-.31.18-.75.32-1.1.43-.27.09-.55.18-.81.3v.65c0,.27-.04.5-.29.5-.16,0-.23-.17-.23-.31,0-.2.04-.4.06-.59-.37.23-.91.6-.91,1.03,0,.49.64.57,1.01.57.19,0,.38-.02.57-.06.17-.04.49-.1.6-.1.16,0,.35.09.35.26,0,.16-.15.26-.34.31-.26.07-.58.07-.75.07-.35,0-.89-.05-1.28-.25-.27-.14-.46-.36-.46-.7,0-.38.27-.67.55-.9.21-.17.43-.31.66-.44,0-.07,0-.15,0-.22,0-.43-.04-.89-.43-.89-.16,0-.33.1-.48.24-.18.17-.34.4-.43.58-.06.11-.13.24-.2.35-.1.16-.18.24-.3.24-.15,0-.24-.12-.24-.29,0-.18.19-.43.32-.57.49-.55.82-.91,1.05-1.61-.07,0-.15,0-.22,0-.56,0-.79-.22-.93-.74.26.26.48.35.83.35.15,0,.3-.02.45-.04.02-.11.06-.3.06-.39,0-.19-.13-.25-.31-.25-.07,0-.14,0-.21.01.18-.17.39-.28.64-.28.19,0,.41.09.41.31,0,.16-.07.33-.14.48.11-.04.22-.08.31-.12ZM131.49,57.52c.24-.17.42-.35.42-.49,0-.15-.13-.25-.28-.25s-.31.08-.43.15c-.31.17-.56.42-.75.71-.11.18-.2.37-.26.57.22-.09.85-.39,1.28-.7Z"/>
        <path d="M137.01,55.54l.22-.21s.08-.08.12-.08c.04,0,.08.04.11.06l.26.22s.06.07.06.12c0,.04-.04.09-.23.22,0,.66.01,1.38.03,2.08,0,.27.03.58.03.84,0,.38-.28.43-.36.43-.15,0-.18-.11-.18-.23,0-.09.01-.16.02-.24h-1.06c0,.11.01.45.01.7,0,.11,0,.21,0,.25-.03.16-.19.27-.35.27-.15,0-.18-.08-.18-.21,0-.09.01-.2.02-.33.05-1.08.06-2.15.06-3.26,0-.35-.01-.71-.08-1.06l.67.43h.83ZM136.03,58.58h1.07v-2.87h-1.07v2.87ZM140.71,56.89l.32-.42s.06-.09.11-.09c.04,0,.09.04.13.09l.36.4s.06.08.06.11c0,.06-.05.07-.11.07h-1.8c.03,1.38.06,3.53.06,3.74s-.17.36-.38.36c-.17,0-.23-.06-.23-.21,0-.09.03-.54.04-.75.01-1.04.03-2.09.03-3.13h-.62c-.26,0-.58.01-.84.06l-.14-.28c.36.03.73.04,1.09.04h.5c0-.64.01-1.67-.15-2.26l.77.21s.11.04.11.11c0,.06-.04.11-.25.22,0,.58,0,1.16,0,1.73h.92Z"/>
        <path d="M146.17,57.1c.34,0,.67-.14,1.01-.31.13-.06.31-.14.43-.14.22,0,.53.16.53.4,0,.08-.04.19-.11.24-.12.09-.45.36-.58.46-.38.3-.72.64-1.06,1,.14-.05.29-.09.43-.09.16,0,.31.06.43.17.11.11.18.26.2.41.02.18.04.4.05.59,0,.19.23.22.42.22.14,0,.28,0,.43-.02.08,0,.25-.01.37-.01.18,0,.5.07.5.31,0,.26-.23.26-.64.26-.43,0-.89-.03-1.16-.18-.25-.13-.35-.36-.35-.67v-.31c0-.17-.01-.41-.07-.5-.05-.08-.14-.1-.23-.1-.23,0-.4.13-.55.27-.19.18-.53.73-.66.96-.16.27-.23.33-.38.33s-.24-.11-.24-.24c0-.18.16-.42.33-.6.35-.38.81-.84,1.23-1.27.31-.31.57-.62.86-.98.04-.05.11-.14.11-.21,0-.06-.04-.09-.09-.09-.06,0-.14.04-.24.1-.23.13-.57.33-.71.41-.11.06-.25.13-.39.13-.28,0-.35-.33-.35-.57,0-.12.02-.24.06-.36.08.19.19.39.43.39ZM147.26,55.36c.24.03.46.17.46.45,0,.17-.06.18-.38.19-.05,0-.16.03-.26.06-.21.08-.57.22-.71.27.17-.13.35-.27.45-.37.05-.05.08-.09.08-.11,0-.03-.03-.06-.09-.11s-.12-.11-.17-.15c-.21-.18-.28-.37-.33-.69.25.36.46.39.95.45Z"/>
        <path d="M154.51,55.85c.21,0,.36-.09.7-.29.2-.12.43-.23.62-.23.26,0,.57.2.57.48,0,.18-.13.33-.35.53-.31.29-.6.6-.89.91-.28.3-.55.63-.79.97.52-.38,1.04-.61,1.68-.61.76,0,1.4.53,1.4,1.32,0,.49-.25.93-.65,1.23-.35.26-.79.36-1.23.36-.24,0-.5-.05-.72-.17-.18-.1-.33-.25-.33-.48,0-.18.13-.35.31-.45.18-.11.36-.13.54-.13.29,0,.66.13.79.41.05.1.06.2.06.33.43-.27.67-.7.67-1.21,0-.63-.35-1.01-1-1.01-.82,0-1.53.59-1.88,1.31-.09.19-.18.36-.35.36-.16,0-.28-.14-.28-.3,0-.13.07-.25.18-.39.37-.5.77-.99,1.16-1.45.18-.21.69-.81.93-1.23.09-.14.13-.26.13-.35,0-.06-.03-.13-.1-.13-.11,0-.28.13-.46.32-.27.3-.4.44-.65.44-.36,0-.52-.32-.52-.65,0-.06,0-.11.01-.16.1.19.24.28.45.28ZM155.72,60.06s0-.11,0-.16c0-.25-.22-.43-.47-.43-.18,0-.39.13-.39.33,0,.3.36.44.61.44.09,0,.17-.02.26-.04,0-.05-.01-.09-.01-.13Z"/>
        <path d="M161.63,56.7c.17.11.33.28.33.49,0,.16-.11.33-.28.33-.2,0-.27-.12-.37-.33-.12-.26-.25-.5-.5-.66v-.05c.26.03.6.09.82.22ZM161.25,59.02c.33,0,.45-.2.57-.47.36-.79.86-1.91,1.14-2.71h.04c-.09.38-.28,1.21-.36,1.54-.12.46-.26,1.02-.41,1.47-.12.36-.18.56-.18.85,0,.18.04.39.08.55.03.13.06.26.06.38,0,.21-.13.43-.35.43s-.33-.18-.33-.4c0-.04,0-.11.04-.33.02-.14.06-.38.06-.46,0-.38-.13-.67-.5-.82v-.04c.06,0,.11,0,.16,0ZM162.43,55.02c.2.13.32.29.32.5,0,.16-.1.33-.28.33s-.25-.12-.36-.35c-.13-.24-.31-.51-.49-.72v-.04c.28.05.6.14.82.28ZM164.55,58.45h-.4c-.26,0-.58.01-.84.07l-.13-.28c.36.03.72.04,1.09.04h.28v-1.8h-.33c-.28,0-.57.01-.84.06l-.14-.28c.36.03.72.05,1.09.05h1.81l.31-.36s.07-.09.11-.09.1.05.13.08l.38.35s.07.07.07.11c0,.06-.06.08-.11.08h-1.95v1.8h.86l.32-.39s.07-.09.11-.09.09.04.13.08l.42.39s.07.06.07.11c0,.06-.06.07-.11.07h-1.8v2.03h1.28l.28-.35s.07-.09.12-.09c.04,0,.1.05.13.07l.42.35s.08.06.08.11c0,.06-.06.08-.11.08h-3.73c-.28,0-.57.01-.84.06l-.14-.28c.36.03.73.05,1.09.05h.89v-2.03ZM164.81,55.03c.21.14.48.37.48.63,0,.18-.1.34-.3.34-.18,0-.27-.11-.38-.34-.19-.38-.4-.66-.75-.91v-.05c.32.06.7.16.96.33Z"/>
        <path d="M170.48,56.29c-.28,0-.56.01-.83.06l-.14-.28c.36.03.72.05,1.09.05h1.79c0-.33,0-.67-.05-.99-.02-.16-.08-.3-.14-.45l.85.18c.06.01.1.04.1.09,0,.08-.04.11-.24.23,0,.3,0,.67,0,.94h1.92l.31-.38c.04-.06.07-.09.11-.09.02,0,.09.04.13.08l.45.38s.07.06.07.11c0,.06-.06.08-.11.08h-1.95l.47.26s.07.04.07.09c0,.11-.2.15-.28.17-.19.9-.53,1.72-1.1,2.45.84.71,1.82,1.02,2.9,1.03v.05c-.32.13-.53.35-.65.67-.97-.23-1.87-.65-2.58-1.38-.85.87-1.93,1.3-3.12,1.48v-.07c1.06-.38,2.04-.9,2.81-1.76-.68-.86-1-1.9-1.08-2.99h-.78ZM172.62,58.93c.47-.66.75-1.41.88-2.21.02-.12.03-.24.03-.37v-.06h-2.11c.14,1.01.48,1.88,1.2,2.64Z"/>
        <path d="M179.56,56.32s.08.06.08.11c0,.07-.04.09-.19.21-.01.3-.01.59-.01.88,0,.59.01,1.55.02,2.11,0,.37.04.74.04,1.11,0,.26-.05.45-.36.45-.17,0-.25-.06-.25-.24,0-.4.07-1.21.08-1.7.01-.74.02-1.47.03-2.21-.31.44-.68.84-1.12,1.16l-.04-.03c.52-.75.97-1.56,1.33-2.4.09-.21.22-.53.28-.74.04-.13.06-.28.07-.42l.64.37c.06.04.1.06.1.13,0,.12-.13.17-.3.21-.15.32-.31.63-.48.94l.1.06ZM182.11,58.2h.8l.24-.33s.08-.09.11-.09.08.04.13.07l.45.33c.06.04.07.07.07.11,0,.06-.05.08-.11.08h-1.7v2.16h1.21l.31-.36c.05-.06.08-.09.11-.09.03,0,.08.04.13.08l.41.36s.07.06.07.11c0,.06-.06.07-.11.07h-3.63c-.26,0-.57.01-.84.06l-.13-.28c.36.03.72.04,1.09.04h.87v-2.16h-.49c-.28,0-.56.01-.84.06l-.14-.28c.36.04.72.05,1.09.05h.38v-1.79h-.79c-.28,0-.56.01-.83.06l-.14-.28c.36.03.72.05,1.09.05h2.16l.23-.31s.1-.14.14-.14c.04,0,.13.08.16.1l.43.33s.07.06.07.11c0,.06-.06.08-.11.08h-1.91v1.79ZM182.24,55.73c0,.19-.09.34-.3.34-.24,0-.3-.23-.35-.43-.07-.27-.27-.71-.44-.93l.04-.04c.41.18,1.05.53,1.05,1.06Z"/>
        <path d="M186.89,57.12c-.16,0-.31-.11-.31-.28s.16-.31.36-.46c.34-.26.47-.46.55-.88h.04c.03.11.04.17.06.28h1.83c0-.29,0-.52-.03-.73-.01-.13-.07-.27-.11-.4l.74.21s.11.04.11.11c0,.07-.05.11-.21.22v.59h1.8l.22-.21s.09-.07.13-.07c.05,0,.1.05.13.09l.41.4s.09.11.09.18c0,.1-.14.13-.5.13-.18.09-.48.29-.64.41l-.04-.02c.08-.22.18-.5.22-.73h-4.13v.05c0,.6-.33,1.12-.71,1.12ZM189.06,57.54c-.73.19-1.53.39-2.29.4v-.05c.25-.06.49-.13.73-.21.84-.28,2.04-.65,2.76-1.14.09-.06.18-.15.26-.25l.48.48s.04.07.04.1c0,.09-.06.11-.13.11-.04,0-.16,0-.23,0-.37.16-.75.29-1.13.42,0,.44-.01.88-.01,1.32l2.14-.39.26-.43c.04-.07.07-.11.11-.11s.08.02.13.05l.48.28s.09.06.09.11-.05.07-.09.08l-3.13.57v.46c0,.16,0,.82.02.89.04.14.11.19.4.21.28.01.75.01,1.04.01.75,0,1.03-.01,1.2-.42.09-.19.15-.48.22-.91h.04c.05.3.11.59.17.88.02.09.04.13.11.19.09.07.11.1.11.17,0,.15-.14.26-.26.34-.09.06-.22.11-.34.14-.38.08-.82.09-1.26.09-.28,0-1.02,0-1.32-.04-.4-.06-.58-.18-.62-.55-.01-.17-.01-.62-.01-.82v-.55l-1.46.27c-.27.05-.55.11-.81.21l-.19-.26c.36-.04.72-.08,1.09-.14l1.38-.26c0-.42,0-.84.01-1.26Z"/>
        <path d="M198.03,55.67c.09-.04.12-.09.12-.13,0-.07-.08-.14-.21-.23.13.05.28.09.42.09.21.01.37.03.37.2,0,.16-.15.28-.35.38-.29.14-.7.26-.87.3-.09.19-.18.38-.28.56-.11.21-.22.41-.35.6.21-.13.44-.25.7-.25.48,0,.6.41.66.8.2-.4.43-.77.79-1.06.26-.21.58-.38.92-.38.31,0,.68.24.68.58,0,.26-.2.45-.4.56-.31.18-.75.32-1.1.43-.27.09-.55.18-.81.3v.65c0,.27-.04.5-.29.5-.16,0-.23-.17-.23-.31,0-.2.04-.4.06-.59-.37.23-.91.6-.91,1.03,0,.49.64.57,1.01.57.19,0,.38-.02.57-.06.17-.04.49-.1.6-.1.16,0,.35.09.35.26,0,.16-.15.26-.34.31-.26.07-.58.07-.75.07-.35,0-.89-.05-1.28-.25-.27-.14-.46-.36-.46-.7,0-.38.27-.67.55-.9.21-.17.43-.31.66-.44,0-.07,0-.15,0-.22,0-.43-.04-.89-.43-.89-.16,0-.33.1-.48.24-.18.17-.34.4-.43.58-.06.11-.13.24-.2.35-.1.16-.18.24-.3.24-.15,0-.24-.12-.24-.29,0-.18.19-.43.32-.57.49-.55.82-.91,1.05-1.61-.07,0-.15,0-.22,0-.56,0-.79-.22-.93-.74.26.26.48.35.83.35.15,0,.3-.02.45-.04.02-.11.06-.3.06-.39,0-.19-.13-.25-.31-.25-.07,0-.14,0-.21.01.18-.17.39-.28.64-.28.19,0,.41.09.41.31,0,.16-.07.33-.14.48.11-.04.22-.08.31-.12ZM199.63,57.52c.24-.17.42-.35.42-.49,0-.15-.13-.25-.28-.25s-.31.08-.43.15c-.31.17-.56.42-.75.71-.11.18-.2.37-.26.57.22-.09.85-.39,1.28-.7Z"/>
        <path d="M202.04,59.89c0-.56.45-1.04,1.02-1.04s1.03.48,1.03,1.04-.45,1.05-1.03,1.05-1.02-.48-1.02-1.05ZM203.89,59.89c0-.45-.36-.84-.82-.84s-.82.39-.82.84.36.84.82.84.82-.39.82-.84Z"/>
      </g>
    </g>
  </g>
</svg>