<svg width="33" height="22" viewBox="0 0 33 22" fill="none" xmlns="http://www.w3.org/2000/svg">
<path d="M16.2105 0L0 5.33216L5.62406 7.12252C5.62406 7.12252 5.70191 7.12252 5.74083 7.16144L16.23 10.5086L26.7192 7.16144C26.7192 7.16144 26.797 7.14198 26.8359 7.12252L32.46 5.33216L16.2105 0ZM16.2105 11.6763C16.2105 11.6763 16.0938 11.6763 16.0354 11.6763L6.05219 8.46529V14.4202C9.90536 14.5953 13.5445 16.2495 16.1911 19.0518C18.8377 16.2495 22.4768 14.5953 26.33 14.4202V8.46529L16.3662 11.6568C16.3662 11.6568 16.2495 11.6763 16.1911 11.6763H16.2105ZM32.2849 17.6701C32.8103 17.0279 32.713 16.0743 32.0708 15.5489C31.954 15.4516 31.8178 15.3737 31.6816 15.3154V6.67493L30.5529 7.02522V15.3154C29.9885 15.5489 29.6188 16.0938 29.5993 16.7165C29.5993 17.0668 29.7161 17.3976 29.9496 17.6701L29.3269 20.9394C29.3074 21.0756 29.3269 21.1924 29.4242 21.2897C29.502 21.387 29.6382 21.4454 29.755 21.4454H32.4795C32.6157 21.4454 32.7324 21.387 32.8103 21.2897C32.8881 21.1924 32.927 21.0562 32.9076 20.9394L32.3043 17.6895L32.2849 17.6701Z" fill="white"/>
</svg>
