<svg width="128" height="128" viewBox="0 0 128 128" fill="none" xmlns="http://www.w3.org/2000/svg">
<path d="M70.5408 116.763C70.9755 116.709 71.4424 116.769 71.9415 116.944C72.4414 117.124 72.8819 117.435 73.2631 117.877C73.6443 118.32 73.878 118.89 73.9641 119.586C74.0481 120.265 73.9799 120.887 73.7596 121.452C73.5393 122.018 73.2239 122.474 72.8134 122.821C72.4036 123.174 71.9665 123.379 71.502 123.437C71.3055 123.461 71.1273 123.462 70.9673 123.439C70.8073 123.417 70.6217 123.382 70.4104 123.336C70.3293 123.316 70.2516 123.298 70.1772 123.283C70.0968 123.269 70.0328 123.265 69.9852 123.27C69.884 123.283 69.7913 123.316 69.7071 123.368C69.6177 123.428 69.5447 123.497 69.488 123.577L68.9518 122.174L68.9218 122.078C68.9181 122.048 68.9211 122.024 68.9308 122.004C68.9413 121.991 68.9577 121.977 68.98 121.962L69.0325 121.946C69.0682 121.942 69.1065 121.958 69.1474 121.996C69.1823 122.034 69.296 122.171 69.4885 122.407C69.6809 122.643 69.946 122.831 70.2836 122.971C70.6154 123.111 70.9867 123.156 71.3975 123.105C71.993 123.031 72.4276 122.781 72.7013 122.354C72.9697 121.934 73.127 121.494 73.173 121.035C73.213 120.577 73.2139 120.193 73.1756 119.883C73.0924 119.21 72.9041 118.665 72.6107 118.248C72.3113 117.832 71.9701 117.542 71.5871 117.377C71.1988 117.22 70.8231 117.163 70.4598 117.208C70.0132 117.264 69.6469 117.43 69.3607 117.707C69.0753 117.99 68.8158 118.361 68.5823 118.819C68.5569 118.858 68.5323 118.88 68.5085 118.882C68.4847 118.885 68.4531 118.874 68.4137 118.849C68.3676 118.818 68.3427 118.788 68.339 118.758C68.3375 118.746 68.3413 118.728 68.3502 118.703C68.8162 117.533 69.5464 116.886 70.5408 116.763ZM60.1843 117.476C60.1603 117.476 60.1456 117.46 60.1401 117.43C60.1346 117.406 60.1321 117.379 60.1326 117.349C60.1341 117.265 60.1529 117.224 60.1889 117.224L62.7444 117.27C62.7684 117.271 62.7863 117.28 62.7979 117.298C62.8035 117.322 62.8059 117.355 62.8052 117.397C62.8044 117.439 62.8009 117.469 62.7945 117.487C62.7821 117.511 62.7639 117.523 62.7399 117.522C62.5119 117.518 62.3134 117.548 62.1442 117.61C61.9749 117.679 61.8887 117.804 61.8854 117.984C61.8841 118.056 61.8949 118.125 61.9177 118.192L62.387 119.622L64.8706 119.667L65.2963 118.522C65.353 118.373 65.3824 118.242 65.3844 118.128C65.3911 117.756 65.1095 117.565 64.5396 117.555C64.5156 117.554 64.5009 117.539 64.4954 117.509C64.4899 117.485 64.4873 117.458 64.4879 117.428C64.4894 117.344 64.5082 117.302 64.5441 117.303L66.7578 117.343C66.7818 117.343 66.7996 117.352 66.8113 117.37C66.8169 117.395 66.8193 117.428 66.8185 117.47C66.8178 117.512 66.8142 117.542 66.8079 117.559C66.7955 117.583 66.7772 117.595 66.7532 117.594C66.5793 117.591 66.4012 117.651 66.2189 117.774C66.0367 117.897 65.886 118.101 65.7668 118.387L63.589 123.857L63.1818 123.975C63.1518 123.975 63.1249 123.965 63.1013 123.947C63.0716 123.928 63.054 123.907 63.0484 123.883L62.7585 122.986C62.565 122.401 62.275 121.513 61.8883 120.324C61.4957 119.135 61.265 118.45 61.1962 118.269C61.0135 117.749 60.6762 117.485 60.1843 117.476ZM62.4978 119.966L63.53 123.135C63.9073 122.176 64.3101 121.133 64.7385 120.007L62.4978 119.966ZM52.6106 116.403C52.5691 116.396 52.5546 116.354 52.567 116.277C52.5814 116.188 52.6093 116.147 52.6508 116.154L54.1878 116.402C54.3559 116.867 54.5774 117.453 54.8522 118.16C55.1261 118.872 55.3562 119.423 55.5426 119.812C55.7104 119.827 55.8357 119.841 55.9187 119.854L56.4962 119.948L56.8649 117.664C56.8984 117.457 56.8596 117.302 56.7486 117.199C56.6317 117.095 56.4459 117.022 56.1912 116.981L56.049 116.958C56.0076 116.951 55.9931 116.91 56.0055 116.833C56.0198 116.744 56.0478 116.703 56.0892 116.709L58.6125 117.117C58.654 117.123 58.668 117.168 58.6546 117.251C58.6412 117.334 58.6138 117.372 58.5724 117.366L58.4302 117.343C58.1636 117.3 57.9644 117.31 57.8326 117.374C57.6948 117.437 57.6092 117.572 57.5757 117.779L56.7952 122.612C56.7617 122.82 56.8034 122.975 56.9204 123.079C57.0373 123.183 57.2231 123.256 57.4778 123.297L57.6199 123.32C57.6614 123.327 57.6754 123.371 57.6621 123.454C57.6487 123.537 57.6212 123.575 57.5798 123.569L55.5348 123.248L54.7263 123.117C54.3482 123.05 54.0102 122.922 53.7123 122.734C53.4076 122.552 53.178 122.317 53.0237 122.031C52.8684 121.75 52.8175 121.444 52.8711 121.113C52.9352 120.716 53.1423 120.412 53.4924 120.201C53.8356 119.995 54.2606 119.866 54.7673 119.814C54.6369 119.568 54.3989 119.028 54.0534 118.195C53.7669 117.522 53.6012 117.137 53.5563 117.039C53.4786 116.88 53.3699 116.744 53.2302 116.631C53.0837 116.522 52.8771 116.446 52.6106 116.403ZM56.1895 120.153C55.3424 120.017 54.7301 120.064 54.3525 120.294C53.9749 120.525 53.7512 120.857 53.6813 121.289C53.6029 121.775 53.7217 122.149 54.0377 122.413C54.3477 122.676 54.7516 122.848 55.2491 122.928C55.4742 122.964 55.6606 122.958 55.8083 122.909C55.9551 122.866 56.0471 122.729 56.0844 122.498L56.456 120.196L56.1895 120.153ZM51.0611 115.818C51.1012 115.831 51.1088 115.877 51.084 115.957C51.0591 116.038 51.0266 116.071 50.9865 116.059L50.849 116.016C50.5853 115.935 50.3866 115.917 50.2529 115.964C50.1134 116.008 50.0126 116.131 49.9505 116.332L48.5019 121.009C48.4397 121.209 48.4564 121.368 48.5519 121.486C48.6417 121.601 48.8127 121.698 49.0649 121.776L49.2024 121.819C49.2425 121.831 49.2502 121.878 49.2253 121.958C49.2005 122.038 49.168 122.072 49.1278 122.06L47.6207 121.602C47.0648 121.43 46.6587 121.301 46.4026 121.216C45.8101 121.02 45.3598 120.729 45.0517 120.345C44.7436 119.961 44.6579 119.548 44.7946 119.106C44.9118 118.728 45.1615 118.47 45.5438 118.33C45.9261 118.191 46.3691 118.14 46.8728 118.177C46.3523 117.89 45.9418 117.552 45.6413 117.164C45.3389 116.781 45.2543 116.375 45.3875 115.945C45.4975 115.59 45.6994 115.313 45.9932 115.115C46.2794 114.921 46.6186 114.81 47.0108 114.781C47.4012 114.757 47.8085 114.811 48.2327 114.942L49.5222 115.342L51.0611 115.818ZM48.2024 118.72C47.3714 118.463 46.761 118.406 46.3712 118.549C45.9757 118.69 45.7131 118.97 45.5835 119.389C45.4735 119.744 45.5366 120.077 45.7729 120.389C46.0017 120.705 46.394 120.949 46.95 121.121C47.1964 121.198 47.3874 121.21 47.5229 121.158C47.651 121.109 47.7451 120.988 47.8055 120.793L48.426 118.79L48.2024 118.72ZM48.6653 115.34C48.0864 115.161 47.5697 115.136 47.1151 115.265C46.653 115.398 46.3456 115.711 46.1929 116.204C45.8876 117.19 46.5832 117.946 48.2797 118.471L48.5032 118.54L49.2541 116.116C49.318 115.91 49.3051 115.749 49.2153 115.633C49.1238 115.523 48.949 115.428 48.6911 115.348L48.6653 115.34ZM41.553 112.229C41.9759 112.429 42.3382 112.744 42.6398 113.172C42.9334 113.603 43.1039 114.112 43.1512 114.699C43.1985 115.286 43.0706 115.899 42.7675 116.539C42.4669 117.173 42.0746 117.658 41.5905 117.993C41.1065 118.328 40.6059 118.516 40.0887 118.556C39.5636 118.6 39.0896 118.521 38.6667 118.321C38.2437 118.12 37.8855 117.805 37.5918 117.373C37.2956 116.948 37.1239 116.441 37.0766 115.854C37.0293 115.268 37.1559 114.657 37.4565 114.023C37.7596 113.383 38.1532 112.895 38.6373 112.56C39.1213 112.225 39.6232 112.035 40.1429 111.989C40.66 111.949 41.1301 112.029 41.553 112.229ZM41.4258 112.497C41.1005 112.343 40.7453 112.301 40.3603 112.371C39.9673 112.444 39.5825 112.646 39.2057 112.979C38.821 113.315 38.4873 113.781 38.2047 114.377C37.9247 114.968 37.7779 115.516 37.7645 116.021C37.7456 116.523 37.8337 116.947 38.0289 117.292C38.2161 117.639 38.4724 117.89 38.7977 118.044C39.123 118.198 39.4822 118.239 39.8752 118.166C40.2656 118.099 40.6492 117.899 41.0259 117.566C41.4027 117.234 41.7311 116.772 42.0111 116.181C42.2937 115.584 42.4457 115.032 42.4672 114.524C42.486 114.022 42.3992 113.596 42.2066 113.246C42.0114 112.901 41.7512 112.652 41.4258 112.497ZM37.1801 110.214C37.2099 110.234 37.1997 110.282 37.1494 110.356C37.1058 110.421 37.0691 110.443 37.0392 110.423L36.9198 110.343C36.7606 110.236 36.5778 110.195 36.3713 110.223C36.1598 110.247 35.9971 110.343 35.8831 110.512L33.2272 114.453C33.1132 114.622 33.0825 114.775 33.135 114.912C33.1876 115.048 33.3258 115.192 33.5497 115.343L33.6691 115.424C33.7039 115.447 33.6979 115.494 33.6509 115.563C33.604 115.633 33.5631 115.656 33.5283 115.633L32.2073 114.742L32.0616 108.501L29.7578 111.919C29.684 112.029 29.6518 112.152 29.6611 112.288C29.6621 112.426 29.698 112.555 29.769 112.676C29.8316 112.797 29.9102 112.89 30.0047 112.954L30.1167 113.029C30.1415 113.046 30.1539 113.065 30.1538 113.087C30.1454 113.11 30.1294 113.139 30.1059 113.174C30.059 113.244 30.0156 113.265 29.9758 113.238L28.1697 112.021C28.1449 112.004 28.1366 111.984 28.1451 111.961C28.1452 111.939 28.157 111.911 28.1804 111.876C28.2274 111.807 28.2708 111.785 28.3106 111.812L28.43 111.893C28.5892 112 28.7762 112.039 28.991 112.01C29.1975 111.983 29.3561 111.887 29.4668 111.723L32.5753 107.111L32.7544 107.232L32.8834 114.319L35.5845 110.311C35.6985 110.142 35.7245 109.953 35.6623 109.745C35.6001 109.537 35.4919 109.38 35.3376 109.276L35.2182 109.196C35.1834 109.172 35.1878 109.128 35.2314 109.064C35.2817 108.989 35.3242 108.964 35.3591 108.987L37.1801 110.214ZM27.9557 103.471C27.9806 103.497 27.9606 103.541 27.8957 103.603C27.8395 103.657 27.7989 103.671 27.7739 103.646L27.6742 103.542C27.5412 103.403 27.3709 103.326 27.1633 103.309C26.9515 103.287 26.7721 103.347 26.625 103.489L23.1981 106.781C23.051 106.922 22.9887 107.065 23.0113 107.21C23.0338 107.355 23.1387 107.524 23.3257 107.719L23.4255 107.823C23.4546 107.853 23.4388 107.898 23.3782 107.956C23.3177 108.014 23.2728 108.028 23.2437 107.998L22.1401 106.849L23.3133 100.717L20.3408 103.573C20.2456 103.664 20.1882 103.778 20.1685 103.913C20.1403 104.048 20.1482 104.182 20.1923 104.315C20.2278 104.447 20.2851 104.554 20.364 104.636L20.4576 104.734C20.4783 104.755 20.4864 104.777 20.4817 104.798C20.4686 104.819 20.4469 104.844 20.4166 104.873C20.356 104.931 20.3091 104.943 20.2758 104.908L18.7669 103.338C18.7461 103.316 18.7423 103.295 18.7555 103.274C18.7601 103.253 18.7776 103.227 18.8079 103.198C18.8685 103.14 18.9154 103.128 18.9487 103.163L19.0484 103.267C19.1814 103.405 19.356 103.483 19.5721 103.5C19.7797 103.517 19.9548 103.457 20.0976 103.32L24.1086 99.4664L24.2582 99.6222L22.8903 106.577L26.3756 103.229C26.5227 103.088 26.5878 102.909 26.5709 102.692C26.5541 102.475 26.4812 102.3 26.3523 102.166L26.2526 102.062C26.2235 102.032 26.2371 101.989 26.2933 101.935C26.3582 101.873 26.4052 101.857 26.4343 101.887L27.9557 103.471ZM17.7761 93.882C17.7594 93.8275 17.7731 93.7847 17.8171 93.7533C17.8317 93.7429 17.8795 93.7273 17.9604 93.7064C18.3867 93.6017 18.8483 93.4791 19.3451 93.3389L22.2432 97.4072C22.2675 97.4414 22.2455 97.4829 22.1771 97.5316C22.1087 97.5803 22.0623 97.5876 22.0379 97.5534L21.9544 97.4361C21.7977 97.2162 21.6504 97.0818 21.5123 97.0328C21.3659 96.9823 21.2096 97.0163 21.0435 97.1347L17.0558 99.9753C16.8848 100.097 16.8034 100.236 16.8115 100.392C16.8162 100.544 16.8934 100.725 17.0431 100.935L17.1266 101.052C17.151 101.086 17.129 101.128 17.0606 101.176C16.9922 101.225 16.9458 101.232 16.9214 101.198L14.1852 97.3571C14.2726 97.1696 14.3656 96.9745 14.4642 96.7716C14.5593 96.5639 14.6345 96.4109 14.6897 96.3126C14.696 96.3008 14.7065 96.2896 14.7212 96.2792C14.7456 96.2618 14.784 96.2639 14.8363 96.2856C14.8565 96.2933 14.8753 96.3094 14.8927 96.3338C14.9136 96.3631 14.9212 96.3945 14.9156 96.428C14.8537 96.7962 14.8689 97.1795 14.9612 97.5778C15.0486 97.9797 15.2193 98.359 15.4734 98.7158L15.604 98.899C15.7467 99.0994 15.8661 99.2463 15.9623 99.3399C16.0535 99.437 16.1535 99.4947 16.2623 99.5129C16.3711 99.5312 16.4964 99.4899 16.6381 99.3889L18.412 98.1252L17.942 97.4655C17.7297 97.1674 17.588 96.9737 17.517 96.8843C17.3659 96.6826 17.1843 96.5725 16.9723 96.5541C16.7568 96.5308 16.5489 96.5905 16.3485 96.7332C16.3143 96.7576 16.2746 96.738 16.2293 96.6745C16.205 96.6403 16.1924 96.6124 16.1918 96.5907C16.1827 96.5677 16.188 96.5492 16.2075 96.5353L17.8862 95.3395C17.9253 95.3117 17.9692 95.3319 18.0179 95.4004C18.0632 95.4639 18.0663 95.5096 18.0272 95.5374C17.8268 95.6802 17.7024 95.8572 17.654 96.0684C17.6021 96.2748 17.6469 96.4824 17.7882 96.6911C17.8495 96.7874 17.9863 96.9847 18.1986 97.2828L18.6686 97.9425L20.6258 96.5483C20.7919 96.4299 20.8702 96.2968 20.8606 96.1489C20.851 96.001 20.7746 95.8161 20.6312 95.5941C20.5908 95.5271 20.5149 95.4154 20.4035 95.259C20.32 95.1417 20.2566 95.058 20.2134 95.0077C19.9731 94.7221 19.7251 94.5084 19.4693 94.3664C19.2135 94.2245 18.9709 94.1321 18.7415 94.0893C18.5037 94.0451 18.2164 94.014 17.8795 93.9961C17.8495 93.9954 17.8258 93.9828 17.8084 93.9584C17.798 93.9437 17.7872 93.9183 17.7761 93.882ZM16.6967 88.466C17.0476 89.1491 17.1495 89.7612 17.0024 90.3022C16.85 90.8459 16.4909 91.263 15.9251 91.5536L12.5868 93.2683C12.4 93.3643 12.3007 93.4861 12.2889 93.6338C12.269 93.7789 12.3207 93.9716 12.4441 94.2118L12.5057 94.3318C12.5249 94.3692 12.4972 94.4071 12.4224 94.4455C12.3477 94.4838 12.3008 94.4843 12.2816 94.447L11.122 92.1894C11.1083 92.1627 11.1107 92.1412 11.1293 92.1249C11.1399 92.106 11.1638 92.087 11.2012 92.0678C11.2759 92.0294 11.3242 92.0315 11.3461 92.0742L11.4078 92.1943C11.5312 92.4345 11.659 92.5914 11.7913 92.6651C11.9182 92.7416 12.0751 92.7318 12.2619 92.6359C13.2706 92.1178 13.9591 91.7641 14.3274 91.575C14.6929 91.3805 14.929 91.2558 15.0358 91.201L15.2439 91.0941C15.7723 90.8227 16.1712 90.4896 16.4406 90.0949C16.7101 89.7002 16.694 89.2093 16.3925 88.6222C16.0662 87.9871 15.6694 87.648 15.202 87.6047C14.7319 87.5562 14.2113 87.6785 13.6402 87.9719L10.7982 89.4316C10.6168 89.5248 10.503 89.6777 10.457 89.8902C10.411 90.1027 10.4292 90.289 10.5114 90.4491L10.5731 90.5692C10.5923 90.6065 10.5645 90.6444 10.4898 90.6828C10.4151 90.7212 10.3681 90.7217 10.3489 90.6843L9.34969 88.7389C9.33599 88.7122 9.33844 88.6907 9.35704 88.6744C9.36757 88.6555 9.39152 88.6365 9.42888 88.6173C9.5036 88.5789 9.55192 88.5811 9.57385 88.6238L9.63553 88.7439C9.71778 88.904 9.85865 89.0272 10.0582 89.1136C10.2577 89.2 10.4482 89.1966 10.6296 89.1034L13.712 87.5404C14.3205 87.2279 14.8898 87.1479 15.4201 87.3005C15.9504 87.453 16.3759 87.8415 16.6967 88.466ZM13.8922 82.592C13.9038 82.6261 13.8669 82.6576 13.7817 82.6864C13.7078 82.7114 13.6651 82.7068 13.6535 82.6727L13.6103 82.5449C13.5237 82.2891 13.4205 82.115 13.3006 82.0226C13.1749 81.932 13.0155 81.9195 12.8223 81.9848L8.18442 83.5537C7.96845 83.6268 7.84558 83.7317 7.81583 83.8684C7.77848 84.0014 7.79633 84.1759 7.86939 84.3919C7.89823 84.4771 7.9251 84.5472 7.95001 84.6021C8.04021 84.8313 8.22719 85.0657 8.51097 85.3054C8.78714 85.5414 9.07818 85.709 9.3841 85.8082C9.43542 85.8288 9.46589 85.8533 9.4755 85.8818C9.48127 85.8988 9.48231 85.9206 9.47864 85.9472C9.47513 86.0117 9.45917 86.0488 9.43075 86.0584L9.38524 86.0643C9.26379 86.061 9.07878 86.0571 8.8302 86.0525C8.57402 86.0442 8.34913 86.0348 8.15555 86.0242L6.43384 80.9346C6.58127 80.8087 6.75521 80.6675 6.95563 80.511C7.14846 80.3508 7.29213 80.2325 7.38666 80.1562L7.42641 80.1332C7.45482 80.1236 7.49001 80.1434 7.53197 80.1925C7.55103 80.2114 7.56344 80.2294 7.56921 80.2464C7.57883 80.2749 7.56951 80.3129 7.54126 80.3604C7.35839 80.625 7.2298 80.9377 7.15551 81.2985C7.07361 81.6556 7.06639 81.9525 7.13385 82.1894C7.14547 82.2425 7.16667 82.3145 7.19743 82.4054C7.27241 82.6271 7.36511 82.7794 7.47553 82.8624C7.58594 82.9454 7.7463 82.9513 7.95659 82.8802L12.5944 81.3113C12.7934 81.244 12.9124 81.1373 12.9516 80.991C12.9889 80.839 12.9652 80.638 12.8806 80.3879L12.8374 80.26C12.8239 80.2203 12.8541 80.1879 12.928 80.1629C13.0133 80.134 13.0626 80.1395 13.0761 80.1793L13.8922 82.592ZM10.717 71.0304C10.7094 70.9891 10.744 70.9614 10.8207 70.9473C10.9092 70.931 10.9572 70.9435 10.9649 70.9848L11.247 72.516C10.8657 72.8303 10.3882 73.2355 9.81464 73.7317C9.23516 74.229 8.79365 74.6306 8.49009 74.9367C8.53234 75.0998 8.56108 75.2226 8.5763 75.3052L8.68232 75.8805L10.957 75.4613C11.1635 75.4233 11.2967 75.3347 11.3565 75.1955C11.4151 75.0505 11.4211 74.8511 11.3744 74.5974L11.3483 74.4558C11.3406 74.4145 11.3752 74.3867 11.4519 74.3726C11.5404 74.3563 11.5885 74.3688 11.5961 74.4101L12.0593 76.9238C12.0669 76.9651 12.0294 76.9933 11.9468 77.0086C11.8642 77.0238 11.8191 77.0107 11.8115 76.9694L11.7854 76.8278C11.7365 76.5623 11.6598 76.3781 11.5555 76.2753C11.45 76.1667 11.294 76.1313 11.0875 76.1694L6.27258 77.0567C6.06606 77.0948 5.93345 77.1863 5.87477 77.3314C5.81608 77.4764 5.81011 77.6758 5.85687 77.9295L5.88297 78.0711C5.89058 78.1124 5.85308 78.1407 5.77047 78.1559C5.68787 78.1711 5.64275 78.1581 5.63514 78.1168L5.25114 76.0827L5.10271 75.2773C5.03902 74.8985 5.04567 74.5373 5.12267 74.1937C5.19268 73.8452 5.3366 73.5503 5.55445 73.3088C5.76639 73.0684 6.03758 72.9178 6.36802 72.8569C6.76336 72.784 7.11912 72.8771 7.43529 73.1361C7.74447 73.3902 8.00856 73.7473 8.22754 74.2072C8.41541 74.0018 8.84404 73.5964 9.51342 72.991C10.0505 72.4955 10.3579 72.2101 10.4355 72.1347C10.5586 72.0083 10.6503 71.8603 10.7106 71.6905C10.7638 71.516 10.766 71.296 10.717 71.0304ZM8.38556 75.6606C8.23006 74.8169 7.98025 74.2558 7.63613 73.9776C7.292 73.6994 6.90457 73.5999 6.47382 73.6793C5.98997 73.7685 5.67686 74.0062 5.53449 74.3924C5.39104 74.7726 5.36498 75.2106 5.45632 75.7063C5.49764 75.9305 5.56621 76.1039 5.66203 76.2266C5.75195 76.3504 5.91197 76.391 6.14209 76.3486L8.43449 75.9262L8.38556 75.6606ZM10.2517 63.2685C10.2507 63.2445 10.2651 63.2289 10.2949 63.2217C10.3186 63.2147 10.3455 63.2107 10.3754 63.2095C10.4594 63.2061 10.5021 63.2224 10.5035 63.2584L10.6058 65.8123C10.6067 65.8363 10.5984 65.8547 10.5809 65.8674C10.5572 65.8743 10.5243 65.8786 10.4824 65.8803C10.4404 65.882 10.4103 65.8802 10.3921 65.8749C10.3676 65.8639 10.3549 65.8464 10.354 65.8224C10.3448 65.5946 10.3039 65.3981 10.2313 65.2329C10.1526 65.0679 10.0234 64.989 9.84349 64.9962C9.77155 64.9991 9.70309 65.0138 9.6381 65.0404L8.23704 65.5919L8.33642 68.0739L9.5037 68.4325C9.65574 68.4805 9.78872 68.5022 9.90263 68.4976C10.2743 68.4827 10.4488 68.1905 10.426 67.621C10.425 67.597 10.4394 67.5814 10.4691 67.5742C10.4929 67.5673 10.5197 67.5632 10.5497 67.562C10.6336 67.5586 10.6763 67.5749 10.6778 67.6109L10.7663 69.8231C10.7673 69.8471 10.759 69.8654 10.7415 69.8782C10.7178 69.8851 10.6849 69.8894 10.643 69.8911C10.601 69.8928 10.5709 69.891 10.5527 69.8857C10.5282 69.8747 10.5155 69.8572 10.5145 69.8332C10.5076 69.6593 10.4376 69.485 10.3045 69.3102C10.1714 69.1354 9.95864 68.9968 9.66631 68.8944L4.07954 67.0374L3.93744 66.6378C3.93624 66.6078 3.94415 66.5805 3.96118 66.5558C3.97797 66.5251 3.99823 66.5062 4.02197 66.4993L4.90001 66.1579C5.47339 65.9308 6.34244 65.5897 7.50717 65.1348C8.67166 64.6738 9.34239 64.4038 9.51937 64.3246C10.0273 64.1121 10.2714 63.7601 10.2517 63.2685ZM7.9 65.7225L4.79609 66.9367C5.77572 67.2577 6.84024 67.5994 7.98965 67.9617L7.9 65.7225ZM10.5168 61.6786C10.5145 61.7025 10.5037 61.7196 10.4847 61.7298C10.4602 61.7334 10.4271 61.7332 10.3853 61.7291C10.2957 61.7203 10.2529 61.695 10.257 61.6532L10.271 61.5099C10.2979 61.2352 10.2784 61.0344 10.2124 60.9074C10.1405 60.7797 10 60.7057 9.79103 60.6853L4.91828 60.2087C4.70928 60.1883 4.55684 60.2367 4.46098 60.3539C4.36511 60.4711 4.30433 60.6611 4.27864 60.9239L4.26462 61.0672C4.26053 61.109 4.21669 61.1258 4.13309 61.1176C4.04949 61.1094 4.00973 61.0845 4.01382 61.0427L4.2626 58.4988C4.26552 58.4689 4.27922 58.4522 4.30369 58.4486C4.32277 58.4384 4.35321 58.4353 4.39501 58.4394C4.47862 58.4476 4.51808 58.4755 4.51341 58.5233L4.50027 58.6577C4.47399 58.9264 4.4995 59.1278 4.57681 59.262C4.64815 59.3956 4.78533 59.4723 4.98836 59.4921L9.86111 59.9687C10.0641 59.9886 10.2103 59.9426 10.2996 59.8307C10.3835 59.7123 10.4449 59.5164 10.4837 59.2429L10.5128 59.0377L10.5389 58.6785C10.5784 58.1519 10.5007 57.7132 10.3059 57.3626C10.1051 57.0114 9.82409 56.6795 9.46281 56.3668C9.43471 56.346 9.42211 56.3206 9.42503 56.2908C9.42678 56.2729 9.43837 56.2469 9.45979 56.2128C9.48835 56.1674 9.52054 56.1464 9.55637 56.1499L9.60028 56.1632C9.8997 56.3071 10.1182 56.4158 10.2556 56.4896L10.9898 56.8417L10.5168 61.6786ZM15.1355 42.5904C14.9592 42.9913 14.6685 43.3617 14.2635 43.7013C13.853 44.0386 13.3601 44.2577 12.7847 44.3586C12.2094 44.4596 11.6005 44.3687 10.9579 44.0861C10.3318 43.8107 9.83227 43.4337 9.4594 42.9551C9.08653 42.4765 8.85612 41.9721 8.76816 41.4418C8.67471 40.9091 8.72219 40.4285 8.9106 40.0001C8.99032 39.8189 9.0808 39.6653 9.18205 39.5394C9.2833 39.4135 9.40794 39.2717 9.55597 39.114C9.61484 39.0546 9.66975 38.9969 9.7207 38.9406C9.77407 38.8789 9.81042 38.826 9.82975 38.7821C9.87081 38.6887 9.89023 38.5924 9.88802 38.4931C9.88273 38.3859 9.86042 38.2876 9.82108 38.1982L11.3006 38.4556L11.3985 38.479C11.426 38.4911 11.4455 38.5063 11.4572 38.5245C11.4633 38.5403 11.4671 38.5616 11.4684 38.5884L11.4549 38.6415C11.4404 38.6744 11.4067 38.6989 11.3537 38.715C11.3032 38.7255 11.1273 38.753 10.8259 38.7974C10.5245 38.8419 10.2274 38.9734 9.9346 39.192C9.64422 39.4051 9.4157 39.7012 9.24903 40.0802C9.00747 40.6294 8.99998 41.1308 9.22654 41.5844C9.45002 42.0301 9.74719 42.3902 10.118 42.6647C10.4913 42.9338 10.8208 43.1311 11.1064 43.2567C11.727 43.5296 12.2916 43.6469 12.8001 43.6083C13.3111 43.5643 13.7351 43.4198 14.0723 43.1748C14.4064 42.9219 14.6471 42.6279 14.7944 42.2929C14.9756 41.881 15.0204 41.4812 14.9287 41.0935C14.8315 40.7033 14.6459 40.2907 14.3719 39.8556C14.3511 39.8136 14.3455 39.7817 14.3551 39.7597C14.3648 39.7377 14.3906 39.7163 14.4325 39.6954C14.4824 39.6715 14.5211 39.6655 14.5485 39.6776C14.5595 39.6824 14.5736 39.6952 14.5907 39.7158C15.3573 40.715 15.5389 41.6732 15.1355 42.5904ZM19.8182 33.3259C19.8308 33.3055 19.8515 33.3006 19.8801 33.3113C19.9037 33.3188 19.9282 33.3305 19.9537 33.3463C20.0251 33.3905 20.0514 33.4279 20.0324 33.4585L18.6869 35.6317C18.6743 35.6521 18.6571 35.6627 18.6355 35.6634C18.612 35.6559 18.5823 35.641 18.5466 35.6189C18.5109 35.5968 18.487 35.5785 18.4748 35.5639C18.4607 35.5411 18.46 35.5195 18.4726 35.499C18.5927 35.3052 18.6688 35.1195 18.7012 34.9419C18.7284 34.7612 18.6655 34.6234 18.5124 34.5287C18.4512 34.4908 18.3862 34.4646 18.3175 34.4503L16.8479 34.1226L15.5403 36.2345L16.3065 37.1853C16.4056 37.3102 16.5037 37.4026 16.6006 37.4627C16.9169 37.6585 17.225 37.5141 17.5251 37.0295C17.5377 37.009 17.5584 37.0042 17.587 37.0149C17.6106 37.0224 17.6351 37.0341 17.6606 37.0499C17.7321 37.0941 17.7583 37.1315 17.7393 37.1621L16.5739 39.0445C16.5612 39.0649 16.5441 39.0755 16.5225 39.0762C16.4989 39.0687 16.4693 39.0539 16.4336 39.0317C16.3979 39.0096 16.3739 38.9913 16.3618 38.9767C16.3477 38.9539 16.347 38.9323 16.3596 38.9119C16.4512 38.7639 16.4908 38.5803 16.4784 38.3609C16.4661 38.1415 16.3674 37.9076 16.1826 37.659L12.594 32.9919L12.7 32.5812C12.7158 32.5557 12.7377 32.5375 12.7656 32.5266C12.7967 32.5105 12.8241 32.5063 12.8476 32.5138L13.7663 32.7227C14.3685 32.8556 15.2795 33.0598 16.4992 33.3351C17.7221 33.6053 18.429 33.7572 18.62 33.7908C19.1598 33.8991 19.5592 33.7442 19.8182 33.3259ZM16.4955 34.042L13.244 33.3097C13.8758 34.1243 14.5664 35.0035 15.3158 35.9474L16.4955 34.042ZM24.6195 27.3715C24.6465 27.3394 24.6899 27.3483 24.7496 27.3985C24.8186 27.4563 24.8395 27.5013 24.8125 27.5335L23.8117 28.7262C23.3265 28.6324 22.71 28.5224 21.9622 28.3961C21.2097 28.266 20.6189 28.1814 20.1896 28.1423C20.0908 28.2787 20.0144 28.3791 19.9604 28.4435L19.5844 28.8916L21.3562 30.3784C21.5171 30.5134 21.6702 30.5596 21.8155 30.5171C21.9647 30.47 22.1222 30.3476 22.2881 30.1499L22.3806 30.0396C22.4076 30.0075 22.451 30.0164 22.5108 30.0666C22.5797 30.1244 22.6007 30.1694 22.5737 30.2016L20.9307 32.1596C20.9037 32.1918 20.858 32.1809 20.7937 32.1269C20.7293 32.0729 20.7106 32.0298 20.7376 31.9976L20.8302 31.8873C21.0038 31.6805 21.0969 31.5041 21.1097 31.3582C21.1264 31.2077 21.0543 31.0649 20.8934 30.9299L17.1429 27.7828C16.982 27.6478 16.827 27.6039 16.6778 27.651C16.5286 27.6981 16.3711 27.8205 16.2052 28.0181L16.1127 28.1284C16.0857 28.1606 16.04 28.1497 15.9756 28.0957C15.9113 28.0417 15.8926 27.9986 15.9196 27.9665L17.2433 26.375L17.7698 25.7476C18.0212 25.4573 18.3039 25.2324 18.6179 25.0729C18.9311 24.905 19.2502 24.8281 19.5751 24.8422C19.8954 24.8526 20.1843 24.9657 20.4417 25.1817C20.7496 25.4401 20.9044 25.7736 20.9061 26.1823C20.907 26.5826 20.7999 27.0136 20.5848 27.4753C20.8629 27.4893 21.4484 27.5616 22.3414 27.6922C23.0655 27.7907 23.4813 27.8459 23.5888 27.8578C23.7647 27.8722 23.9372 27.8486 24.1064 27.7869C24.2749 27.7168 24.4459 27.5784 24.6195 27.3715ZM19.5649 28.5228C20.1164 27.8655 20.3898 27.3156 20.3852 26.8731C20.3806 26.4306 20.2105 26.0686 19.8749 25.787C19.4981 25.4708 19.1154 25.3807 18.727 25.5169C18.3424 25.6485 17.9882 25.9074 17.6642 26.2934C17.5176 26.4681 17.4276 26.6314 17.394 26.7834C17.3559 26.9316 17.4264 27.0808 17.6057 27.2313L19.3913 28.7296L19.5649 28.5228ZM25.9157 26.3392C25.8845 26.3673 25.8408 26.3502 25.7846 26.2878C25.7283 26.2254 25.7158 26.1801 25.747 26.152L25.854 26.0556C26.059 25.8708 26.1757 25.7091 26.2042 25.5704C26.2371 25.4276 26.1832 25.2783 26.0427 25.1223L22.7649 21.4854C22.6243 21.3294 22.4791 21.2624 22.3292 21.2843C22.1839 21.3023 22.0131 21.3996 21.817 21.5764L21.7101 21.6728C21.6789 21.7009 21.6351 21.6837 21.5789 21.6213C21.5227 21.5589 21.5101 21.5137 21.5413 21.4856L22.7053 20.4244C23.1376 20.0348 23.4561 19.7518 23.6606 19.5755C24.1322 19.1667 24.6119 18.9282 25.0998 18.8601C25.5876 18.792 25.9862 18.9295 26.2955 19.2727C26.5606 19.5668 26.6552 19.9137 26.5792 20.3134C26.5032 20.713 26.3206 21.1199 26.0315 21.534C26.5441 21.2335 27.0442 21.0534 27.5316 20.9937C28.015 20.9296 28.4073 21.0647 28.7086 21.399C28.9576 21.6753 29.0921 21.9903 29.1119 22.344C29.1323 22.6891 29.0547 23.0377 28.8792 23.3897C28.6997 23.7373 28.4451 24.0596 28.1152 24.3569L27.1124 25.2607L25.9157 26.3392ZM24.8841 22.3984C25.5304 21.8159 25.8917 21.3207 25.9682 20.9125C26.049 20.5004 25.9429 20.1317 25.6496 19.8063C25.4006 19.53 25.0816 19.4136 24.6928 19.4571C24.3044 19.4921 23.894 19.7045 23.4617 20.0941C23.27 20.2668 23.162 20.4248 23.1375 20.568C23.1135 20.7027 23.1698 20.8458 23.3064 20.9973L24.7103 22.5551L24.8841 22.3984ZM27.5521 24.5252C28.0022 24.1195 28.288 23.6883 28.4095 23.2315C28.5314 22.7663 28.4196 22.342 28.0741 21.9587C27.3832 21.1921 26.3781 21.4033 25.0589 22.5923L24.885 22.7489L26.5842 24.6342C26.7288 24.7947 26.8738 24.8659 27.0191 24.848C27.1605 24.8256 27.3315 24.724 27.532 24.5433L27.5521 24.5252ZM33.861 19.9993C33.4729 20.2608 33.0177 20.4121 32.4954 20.453C31.9747 20.4856 31.4499 20.3727 30.9211 20.1141C30.3922 19.8555 29.93 19.4327 29.5342 18.8456C29.1419 18.2635 28.925 17.6788 28.8838 17.0916C28.8425 16.5044 28.9363 15.978 29.1653 15.5126C29.3958 15.0388 29.7052 14.6711 30.0932 14.4095C30.4813 14.148 30.9357 14.0009 31.4564 13.9682C31.9737 13.9307 32.4968 14.0412 33.0257 14.2997C33.5545 14.5583 34.0151 14.9786 34.4075 15.5608C34.8032 16.1478 35.0217 16.735 35.063 17.3222C35.1043 17.9094 35.0121 18.4383 34.7865 18.9087C34.5576 19.3742 34.2491 19.7377 33.861 19.9993ZM33.695 19.753C33.9935 19.5518 34.2109 19.2678 34.3472 18.901C34.485 18.5258 34.5069 18.0914 34.4129 17.5976C34.3205 17.0955 34.0898 16.5708 33.7209 16.0235C33.3554 15.4812 32.9589 15.0756 32.5315 14.8065C32.1091 14.5341 31.6999 14.3939 31.3038 14.3859C30.9093 14.3696 30.5628 14.4621 30.2643 14.6633C29.9658 14.8645 29.7476 15.1527 29.6097 15.5278C29.4685 15.8979 29.4449 16.3299 29.5389 16.8237C29.6329 17.3174 29.8627 17.8355 30.2283 18.3778C30.5972 18.9251 30.9945 19.3374 31.4203 19.6148C31.8427 19.8872 32.2536 20.0299 32.6531 20.0429C33.0492 20.0508 33.3965 19.9542 33.695 19.753ZM37.8253 17.265C37.7928 17.2804 37.7573 17.2474 37.7188 17.1661C37.6854 17.0956 37.685 17.0526 37.7175 17.0372L37.8477 16.9756C38.0212 16.8935 38.149 16.7567 38.231 16.5652C38.3184 16.3712 38.3185 16.182 38.2312 15.9976L36.1985 11.7023C36.1113 11.5179 35.9955 11.4134 35.8511 11.3888C35.7067 11.3642 35.5124 11.4096 35.2684 11.5251L35.1382 11.5867C35.1003 11.6047 35.0633 11.5757 35.0274 11.4998C34.9914 11.4238 34.9925 11.3769 35.0304 11.3589L36.4703 10.6775L41.9114 13.7383L40.1483 10.0124C40.0918 9.89307 40.0025 9.80257 39.8804 9.74087C39.7611 9.67119 39.6317 9.63619 39.4922 9.63585C39.3555 9.62752 39.2356 9.64774 39.1326 9.6965L39.0105 9.75425C38.9834 9.76708 38.9606 9.76793 38.942 9.75679C38.9263 9.73766 38.9095 9.70912 38.8915 9.67115C38.8556 9.59522 38.8593 9.547 38.9027 9.52646L40.8714 8.59483C40.8985 8.582 40.9199 8.58515 40.9356 8.60428C40.9542 8.61541 40.9724 8.63996 40.9904 8.67793C41.0263 8.75385 41.0226 8.80208 40.9792 8.82262L40.8491 8.88421C40.6755 8.96634 40.5463 9.10713 40.4615 9.30659C40.3795 9.49805 40.3809 9.68327 40.4655 9.86224L42.8447 14.8897L42.6494 14.9821L36.4893 11.4751L38.5566 15.8436C38.6439 16.028 38.7929 16.1466 39.0038 16.1995C39.2147 16.2524 39.4042 16.239 39.5723 16.1595L39.7025 16.0979C39.7405 16.0799 39.7761 16.1062 39.8095 16.1767C39.848 16.2581 39.8482 16.3077 39.8103 16.3257L37.8253 17.265ZM48.3346 12.7795C48.2995 12.7875 48.2719 12.7477 48.2518 12.6599C48.2344 12.5839 48.2433 12.5419 48.2784 12.5338L48.4187 12.5017C48.6059 12.4589 48.7601 12.3528 48.8814 12.1835C49.0085 12.0128 49.0494 11.8281 49.0038 11.6292L47.9437 6.99695C47.8982 6.79809 47.8076 6.6711 47.6719 6.61599C47.5362 6.56088 47.3367 6.56344 47.0735 6.62367L46.9332 6.65579C46.8922 6.66516 46.8624 6.62891 46.8437 6.54702C46.8249 6.46514 46.836 6.41951 46.877 6.41014L48.4298 6.05477L53.0843 10.2153L52.1647 6.19716C52.1353 6.06849 52.0675 5.96088 51.9616 5.87434C51.8601 5.78062 51.7413 5.71856 51.6051 5.68819C51.4734 5.65062 51.3519 5.64455 51.2408 5.66998L51.1092 5.7001C51.08 5.70679 51.0575 5.7027 51.0418 5.68783C51.0306 5.66578 51.0203 5.63428 51.0109 5.59334C50.9922 5.51145 51.0062 5.46516 51.053 5.45445L53.1761 4.96857C53.2054 4.96188 53.2256 4.96956 53.2368 4.99162C53.2525 5.00649 53.265 5.03439 53.2744 5.07533C53.2931 5.15722 53.2791 5.20351 53.2323 5.21422L53.092 5.24635C52.9048 5.28918 52.7483 5.39885 52.6225 5.57536C52.5012 5.74468 52.4627 5.92585 52.5069 6.11886L53.7477 11.5407L53.5371 11.5889L48.2766 6.83768L49.3548 11.5489C49.4003 11.7477 49.5203 11.8957 49.7149 11.9927C49.9094 12.0898 50.0973 12.1176 50.2787 12.0761L50.419 12.0439C50.46 12.0346 50.4891 12.0679 50.5065 12.1439C50.5266 12.2317 50.5162 12.2802 50.4753 12.2896L48.3346 12.7795ZM61.7892 8.96974C61.8445 8.98332 61.8743 9.01702 61.8787 9.07084C61.8801 9.08878 61.8691 9.13784 61.8455 9.21801C61.717 9.63777 61.5857 10.0969 61.4515 10.5954L56.4729 10.9992C56.431 11.0026 56.4067 10.9624 56.3999 10.8787C56.3931 10.795 56.4106 10.7514 56.4525 10.748L56.596 10.7364C56.8651 10.7145 57.0561 10.6569 57.1689 10.5635C57.2872 10.4636 57.3382 10.312 57.3217 10.1087L56.9258 5.22868C56.9089 5.01937 56.8312 4.87819 56.6928 4.80513C56.5605 4.73159 56.3657 4.70525 56.1085 4.72611L55.965 4.73775C55.9231 4.74115 55.8988 4.70099 55.892 4.61726C55.8852 4.53353 55.9028 4.48997 55.9446 4.48658L60.6452 4.10531C60.7614 4.27647 60.8813 4.45637 61.005 4.64499C61.1346 4.83312 61.2275 4.97608 61.2836 5.07387C61.2905 5.08534 61.2947 5.10005 61.2962 5.11799C61.2986 5.14789 61.2771 5.17974 61.2317 5.21352C61.2147 5.22693 61.1913 5.23486 61.1614 5.23728C61.1255 5.24019 61.0946 5.23066 61.0688 5.20867C60.7843 4.96688 60.4474 4.78352 60.058 4.65859C59.6681 4.52768 59.2549 4.47993 58.8184 4.51534L58.5941 4.53353C58.3489 4.55342 58.1615 4.58066 58.0319 4.61526C57.9017 4.64387 57.801 4.7002 57.7295 4.78425C57.6581 4.8683 57.6294 4.99704 57.6435 5.17047L57.8196 7.34134L58.6269 7.27586C58.9917 7.24627 59.2307 7.22387 59.3438 7.20868C59.5945 7.18232 59.7821 7.08283 59.9065 6.91021C60.037 6.7371 60.0922 6.52794 60.0724 6.28275C60.069 6.24089 60.1061 6.2168 60.1839 6.2105C60.2257 6.2071 60.2561 6.21065 60.275 6.22116C60.2994 6.2252 60.3126 6.23918 60.3146 6.2631L60.4812 8.31736C60.4851 8.3652 60.4451 8.39252 60.3614 8.39931C60.2837 8.40561 60.2429 8.38484 60.239 8.337C60.2191 8.09181 60.1308 7.8943 59.9742 7.74447C59.8236 7.59415 59.6224 7.52619 59.3707 7.54059C59.2566 7.54382 59.0172 7.56024 58.6524 7.58983L57.845 7.65531L58.0393 10.0504C58.0558 10.2538 58.13 10.3892 58.2619 10.4568C58.3938 10.5243 58.5918 10.5534 58.8559 10.544C58.9341 10.5437 59.0689 10.5358 59.2603 10.5203C59.4038 10.5086 59.5082 10.4972 59.5735 10.4858C59.9419 10.4259 60.2525 10.3224 60.5055 10.1755C60.7584 10.0285 60.9621 9.86755 61.1164 9.6925C61.2763 9.51098 61.4502 9.28017 61.6382 9.00005C61.6542 8.97468 61.6771 8.96078 61.707 8.95835C61.725 8.95689 61.7524 8.96069 61.7892 8.96974ZM66.9923 10.8117C66.2258 10.7643 65.6476 10.5392 65.2577 10.1364C64.8682 9.72753 64.6931 9.20573 64.7323 8.57094L64.964 4.8251C64.977 4.6155 64.923 4.46789 64.8021 4.38225C64.6875 4.29101 64.4954 4.23705 64.226 4.22038L64.0912 4.21204C64.0493 4.20945 64.0309 4.16624 64.0361 4.0824C64.0413 3.99856 64.0649 3.95793 64.1068 3.96053L66.6399 4.11721C66.6699 4.11907 66.6871 4.13215 66.6916 4.15648C66.7025 4.17519 66.7066 4.2055 66.704 4.24742C66.6988 4.33126 66.6723 4.3717 66.6244 4.36873L66.4896 4.3604C66.2201 4.34373 66.0199 4.37343 65.889 4.44949C65.7584 4.51956 65.6866 4.65939 65.6737 4.86899C65.6037 6.00083 65.5559 6.77335 65.5303 7.18656C65.5108 7.60015 65.4973 7.86682 65.4899 7.98659L65.4754 8.22015C65.4387 8.81301 65.5212 9.32608 65.7229 9.75936C65.9245 10.1926 66.3547 10.4296 67.0134 10.4704C67.7261 10.5145 68.2204 10.3467 68.4963 9.96698C68.7783 9.58767 68.9391 9.07762 68.9787 8.43684L69.176 5.24794C69.1886 5.04433 69.1153 4.86847 68.9561 4.72036C68.797 4.57225 68.6275 4.49264 68.4479 4.48153L68.3131 4.47319C68.2712 4.4706 68.2529 4.42738 68.258 4.34354C68.2632 4.2597 68.2868 4.21908 68.3287 4.22167L70.5115 4.35669C70.5415 4.35855 70.5587 4.37163 70.5632 4.39596C70.5741 4.41466 70.5782 4.44498 70.5756 4.4869C70.5704 4.57074 70.5439 4.61118 70.496 4.60821L70.3612 4.59988C70.1816 4.58877 70.0037 4.64689 69.8275 4.77426C69.6513 4.90162 69.5569 5.06711 69.5443 5.27072L69.3129 8.71902C69.2707 9.40171 69.0485 9.93201 68.6464 10.3099C68.2443 10.6878 67.693 10.8551 66.9923 10.8117ZM73.4733 11.4017C73.438 11.3942 73.4298 11.3464 73.4486 11.2584C73.4648 11.1821 73.4905 11.1477 73.5258 11.1552L73.6578 11.1833C73.9219 11.2396 74.1243 11.2398 74.265 11.1839C74.407 11.1221 74.4992 10.9914 74.5417 10.7919L75.5617 6.00332C75.6092 5.78032 75.5817 5.62111 75.4794 5.52569C75.3841 5.42565 75.225 5.35189 75.002 5.30439C74.914 5.28564 74.84 5.27295 74.7801 5.26632C74.537 5.22681 74.2399 5.26782 73.8889 5.38936C73.545 5.50629 73.2523 5.67092 73.0107 5.88326C72.9668 5.91684 72.9301 5.9305 72.9008 5.92425C72.8832 5.9205 72.8639 5.91026 72.8429 5.89352C72.7892 5.85755 72.7655 5.82489 72.7718 5.79555L72.7899 5.75341C72.8548 5.65066 72.9526 5.49361 73.0835 5.28224C73.2216 5.06625 73.3445 4.87774 73.4524 4.71668L78.7076 5.836C78.7405 6.02705 78.773 6.2487 78.8052 6.50093C78.8445 6.74855 78.8728 6.93248 78.8901 7.05273L78.8895 7.09861C78.8833 7.12795 78.8483 7.14811 78.7846 7.15909C78.7586 7.16582 78.7369 7.16732 78.7193 7.16357C78.6899 7.15732 78.662 7.1299 78.6355 7.08133C78.5015 6.78899 78.2984 6.51874 78.0261 6.27057C77.7609 6.01779 77.5093 5.8599 77.2712 5.79692C77.2196 5.7798 77.1469 5.76124 77.053 5.74124C76.8241 5.6925 76.6458 5.69439 76.5181 5.74693C76.3903 5.79947 76.3033 5.93431 76.2571 6.15143L75.2371 10.94C75.1934 11.1454 75.2244 11.3023 75.3301 11.4107C75.4417 11.5204 75.6266 11.6027 75.8848 11.6577L76.0169 11.6858C76.058 11.6946 76.0704 11.7371 76.0541 11.8134C76.0354 11.9014 76.0055 11.941 75.9644 11.9323L73.4733 11.4017ZM85.0355 14.5695C85.0749 14.584 85.0812 14.6279 85.0542 14.7011C85.0231 14.7855 84.9879 14.8205 84.9485 14.806L83.4873 14.2682C83.4113 13.7799 83.3061 13.1625 83.1716 12.4161C83.0392 11.6641 82.9188 11.0795 82.8102 10.6623C82.6484 10.6155 82.5281 10.5777 82.4492 10.5486L81.9002 10.3466L81.1013 12.5172C81.0287 12.7143 81.0371 12.874 81.1263 12.9963C81.2212 13.1208 81.3897 13.2275 81.6318 13.3166L81.7669 13.3664C81.8063 13.3809 81.8126 13.4247 81.7856 13.4979C81.7545 13.5824 81.7193 13.6174 81.6799 13.6029L79.2812 12.72C79.2418 12.7055 79.2366 12.6588 79.2656 12.58C79.2946 12.5011 79.3288 12.469 79.3682 12.4835L79.5034 12.5332C79.7568 12.6265 79.9543 12.6544 80.0959 12.6171C80.2431 12.5817 80.353 12.4656 80.4256 12.2685L82.1168 7.67385C82.1893 7.47677 82.1782 7.31602 82.0833 7.1916C81.9884 7.06717 81.82 6.9604 81.5778 6.87128L81.4427 6.82154C81.4033 6.80703 81.3981 6.76036 81.4271 6.68153C81.4561 6.6027 81.4903 6.57054 81.5298 6.58505L83.4754 7.29163L84.244 7.57454C84.6023 7.71281 84.9097 7.90266 85.1661 8.14408C85.4301 8.38195 85.6105 8.65614 85.7072 8.96665C85.806 9.27153 85.7973 9.58163 85.6813 9.89695C85.5424 10.2742 85.281 10.5328 84.897 10.6728C84.5207 10.8092 84.0789 10.8544 83.5716 10.8083C83.6526 11.0747 83.7828 11.6501 83.9624 12.5346C84.1149 13.2492 84.2038 13.6592 84.229 13.7643C84.275 13.9347 84.3556 14.0891 84.4709 14.2274C84.5939 14.3622 84.7821 14.4762 85.0355 14.5695ZM82.2407 10.2033C83.0459 10.4997 83.6558 10.5708 84.0706 10.4166C84.4854 10.2624 84.7685 9.97975 84.9198 9.56871C85.0897 9.10699 85.0449 8.71646 84.7852 8.39711C84.5312 8.07982 84.1677 7.83414 83.6947 7.66004C83.4807 7.58129 83.2965 7.55186 83.1422 7.57176C82.9899 7.58602 82.8733 7.70296 82.7925 7.92255L81.9873 10.1101L82.2407 10.2033ZM91.9424 18.1393C91.9635 18.1507 91.9695 18.1711 91.9605 18.2003C91.9543 18.2242 91.9441 18.2494 91.9298 18.2758C91.8897 18.3496 91.8538 18.3779 91.8222 18.3608L89.5757 17.1417C89.5546 17.1302 89.543 17.1137 89.5411 17.0922C89.5473 17.0682 89.5604 17.0378 89.5804 17.0009C89.6004 16.964 89.6174 16.939 89.6312 16.9261C89.6532 16.9107 89.6748 16.9087 89.6959 16.9202C89.8962 17.0289 90.086 17.0944 90.2652 17.1165C90.4472 17.1333 90.5811 17.0626 90.6669 16.9044C90.7013 16.8411 90.7236 16.7748 90.734 16.7053L90.9772 15.2194L88.7939 14.0346L87.8885 14.854C87.7695 14.9601 87.6828 15.0632 87.6284 15.1634C87.451 15.4904 87.6128 15.7898 88.1138 16.0616C88.1349 16.0731 88.1409 16.0934 88.1319 16.1227C88.1257 16.1466 88.1155 16.1718 88.1012 16.1981C88.0611 16.272 88.0252 16.3003 87.9936 16.2831L86.0477 15.2272C86.0266 15.2157 86.015 15.1992 86.0131 15.1777C86.0192 15.1537 86.0323 15.1233 86.0524 15.0864C86.0724 15.0494 86.0894 15.0245 86.1032 15.0115C86.1252 14.9962 86.1468 14.9942 86.1678 15.0057C86.3208 15.0887 86.5064 15.1177 86.7247 15.0928C86.943 15.0679 87.1709 14.9561 87.4085 14.7573L91.8629 10.9078L92.2789 10.9902C92.3053 11.0045 92.3247 11.0253 92.3372 11.0526C92.355 11.0827 92.3608 11.1098 92.3547 11.1337L92.1986 12.0628C92.1004 12.6716 91.9486 13.5928 91.7435 14.8263C91.5436 16.0626 91.4323 16.7771 91.4098 16.9696C91.3324 17.5147 91.51 17.9046 91.9424 18.1393ZM91.0375 14.863L91.5827 11.575C90.8056 12.2523 89.9673 12.992 89.0678 13.7941L91.0375 14.863ZM93.1711 19.1811C93.1518 19.1668 93.1426 19.1488 93.1437 19.1272C93.1531 19.1044 93.1704 19.0761 93.1953 19.0423C93.2488 18.9699 93.2925 18.9462 93.3262 18.9712L93.442 19.0568C93.6639 19.2209 93.8463 19.3073 93.9892 19.3159C94.1356 19.3198 94.2713 19.2372 94.3961 19.0684L97.3072 15.1318C97.4321 14.963 97.4688 14.8073 97.4175 14.6649C97.3661 14.5224 97.2343 14.3727 97.022 14.2158L96.9063 14.1301C96.8725 14.1052 96.8806 14.0589 96.9305 13.9914C96.9805 13.9238 97.0223 13.9025 97.0561 13.9275L99.1112 15.4473C99.1353 15.4651 99.1427 15.4855 99.1332 15.5083C99.1322 15.5299 99.1191 15.5576 99.0942 15.5914C99.0442 15.6589 99 15.6784 98.9614 15.6499L98.8528 15.5696C98.6357 15.4091 98.4498 15.3275 98.295 15.325C98.1437 15.3176 98.0074 15.3959 97.8861 15.56L94.975 19.4965C94.8537 19.6605 94.8181 19.8096 94.8682 19.9436C94.9267 20.0764 95.0634 20.2297 95.2782 20.4035L95.4392 20.5338L95.734 20.7406C96.1657 21.0449 96.582 21.2035 96.9829 21.2164C97.3874 21.2244 97.8165 21.1537 98.2703 21.0043C98.3026 20.9909 98.3308 20.9931 98.3549 21.0109C98.3694 21.0216 98.3858 21.0449 98.404 21.0808C98.4283 21.1286 98.4298 21.167 98.4084 21.196L98.3744 21.2268C98.0972 21.4099 97.8917 21.5414 97.7578 21.6216L97.0787 22.0707L93.1711 19.1811ZM107.213 32.9146C106.958 32.5582 106.789 32.1192 106.703 31.5974C106.623 31.0722 106.687 30.5366 106.894 29.9904C107.101 29.4443 107.49 28.9672 108.062 28.5592C108.618 28.1617 109.197 27.9249 109.799 27.8489C110.401 27.7729 110.953 27.8325 111.453 28.0278C111.959 28.2196 112.348 28.506 112.62 28.8868C112.735 29.0479 112.821 29.2041 112.877 29.3555C112.934 29.5069 112.992 29.6865 113.052 29.8943C113.073 29.9752 113.095 30.0519 113.117 30.1245C113.143 30.2019 113.17 30.2601 113.197 30.2992C113.257 30.3822 113.33 30.4481 113.416 30.497C113.511 30.5472 113.607 30.5782 113.704 30.5901L112.727 31.7304L112.656 31.8026C112.632 31.8201 112.609 31.8291 112.587 31.8298C112.571 31.827 112.55 31.8194 112.527 31.8068L112.488 31.7681C112.467 31.7388 112.463 31.6973 112.477 31.6436C112.493 31.5948 112.56 31.4295 112.675 31.1477C112.791 30.8659 112.83 30.5433 112.791 30.1799C112.757 29.8214 112.619 29.4737 112.378 29.1368C112.03 28.6486 111.602 28.386 111.097 28.349C110.599 28.3134 110.138 28.3849 109.712 28.5634C109.29 28.7469 108.953 28.9293 108.699 29.1106C108.147 29.5047 107.758 29.9301 107.531 30.387C107.308 30.8487 107.215 31.2871 107.254 31.7021C107.3 32.1185 107.43 32.4756 107.643 32.7734C107.904 33.1396 108.225 33.3823 108.605 33.5016C108.99 33.6174 109.44 33.6687 109.954 33.6554C110.001 33.6589 110.031 33.6704 110.045 33.69C110.059 33.7095 110.064 33.7426 110.061 33.7894C110.056 33.8445 110.041 33.8807 110.017 33.8982C110.007 33.9051 109.989 33.9107 109.962 33.9149C108.712 34.0634 107.795 33.73 107.213 32.9146ZM112.788 41.6723C112.799 41.6936 112.793 41.7138 112.769 41.733C112.751 41.7495 112.728 41.7646 112.702 41.7785C112.627 41.8173 112.582 41.8208 112.565 41.7889L111.383 39.5225C111.372 39.5013 111.372 39.4811 111.382 39.4622C111.401 39.4458 111.428 39.4278 111.466 39.4084C111.503 39.389 111.531 39.3778 111.55 39.3748C111.576 39.3743 111.595 39.3847 111.606 39.406C111.712 39.6082 111.833 39.7685 111.969 39.8869C112.11 40.0026 112.261 40.0188 112.421 39.9356C112.484 39.9023 112.54 39.8597 112.588 39.8079L113.619 38.7115L112.471 36.509L111.262 36.6826C111.104 36.7041 110.975 36.7412 110.874 36.7939C110.544 36.9659 110.511 37.3046 110.774 37.81C110.785 37.8313 110.779 37.8515 110.755 37.8707C110.737 37.8871 110.714 37.9023 110.687 37.9162C110.613 37.955 110.567 37.9585 110.551 37.9265L109.527 35.9635C109.516 35.9422 109.515 35.9221 109.526 35.9031C109.544 35.8867 109.572 35.8688 109.61 35.8493C109.647 35.8299 109.675 35.8187 109.693 35.8157C109.72 35.8152 109.739 35.8256 109.75 35.8469C109.831 36.0012 109.969 36.129 110.163 36.2304C110.358 36.3317 110.61 36.3663 110.918 36.3342L116.763 35.6306L117.062 35.9315C117.076 35.9581 117.081 35.9862 117.076 36.0158C117.074 36.0507 117.063 36.0764 117.045 36.0928L116.396 36.7761C115.975 37.2261 115.334 37.9053 114.475 38.8136C113.618 39.7273 113.127 40.2576 113 40.4047C112.632 40.8135 112.561 41.2361 112.788 41.6723ZM113.869 38.4496L116.158 36.0274C115.135 36.1549 114.026 36.3 112.832 36.4626L113.869 38.4496ZM115.451 48.8433C115.465 48.8829 115.435 48.9156 115.362 48.9413C115.277 48.971 115.227 48.966 115.213 48.9263L114.7 47.4563C115.029 47.0874 115.439 46.6138 115.93 46.0357C116.426 45.4557 116.801 44.9912 117.054 44.6423C116.988 44.4876 116.94 44.3706 116.913 44.2913L116.72 43.739L114.536 44.5013C114.338 44.5705 114.22 44.6785 114.182 44.8251C114.146 44.9774 114.171 45.1754 114.256 45.4189L114.303 45.5549C114.317 45.5946 114.287 45.6272 114.214 45.6529C114.129 45.6826 114.079 45.6776 114.065 45.638L113.223 43.2248C113.209 43.1851 113.242 43.1514 113.321 43.1238C113.4 43.0961 113.447 43.1021 113.461 43.1417L113.508 43.2777C113.597 43.5326 113.701 43.7028 113.82 43.7885C113.941 43.8797 114.101 43.8908 114.299 43.8215L118.921 42.2079C119.119 42.1387 119.237 42.0279 119.272 41.8756C119.308 41.7233 119.283 41.5254 119.198 41.2818L119.151 41.1458C119.137 41.1062 119.17 41.0725 119.249 41.0448C119.329 41.0171 119.375 41.0231 119.389 41.0628L120.08 43.0141L120.35 43.7874C120.47 44.1519 120.519 44.5099 120.496 44.8612C120.48 45.2163 120.383 45.5298 120.204 45.8018C120.032 46.0718 119.787 46.2622 119.47 46.3729C119.09 46.5054 118.724 46.4679 118.372 46.2603C118.028 46.0564 117.712 45.744 117.425 45.323C117.271 45.5548 116.91 46.021 116.341 46.7216C115.886 47.2935 115.626 47.6226 115.56 47.7089C115.458 47.8527 115.39 48.013 115.357 48.19C115.331 48.3706 115.362 48.5884 115.451 48.8433ZM117.047 43.9109C117.33 44.7209 117.662 45.2371 118.045 45.4594C118.428 45.6817 118.826 45.7207 119.239 45.5763C119.704 45.4142 119.977 45.1314 120.058 44.7279C120.142 44.3302 120.101 43.8934 119.934 43.4175C119.859 43.2023 119.765 43.0414 119.652 42.9348C119.544 42.8263 119.379 42.8106 119.159 42.8877L116.958 43.6559L117.047 43.9109ZM115.674 50.4849C115.666 50.4437 115.703 50.415 115.786 50.3987C115.868 50.3824 115.913 50.3949 115.921 50.4361L115.949 50.5774C116.003 50.8482 116.082 51.0314 116.186 51.127C116.292 51.2285 116.448 51.2589 116.654 51.2183L121.457 50.2711C121.663 50.2304 121.795 50.1402 121.853 50.0003C121.912 49.8663 121.916 49.6698 121.865 49.4108L121.838 49.2696C121.829 49.2283 121.867 49.1996 121.949 49.1834C122.031 49.1671 122.077 49.1796 122.085 49.2208L122.398 50.7643C122.511 51.3353 122.59 51.7538 122.637 52.0199C122.746 52.6344 122.704 53.1685 122.512 53.6222C122.321 54.0759 121.998 54.3475 121.545 54.4368C121.156 54.5134 120.81 54.4166 120.506 54.1463C120.202 53.876 119.946 53.5106 119.739 53.0499C119.734 53.6441 119.632 54.1657 119.433 54.6147C119.24 55.0625 118.923 55.3299 118.481 55.417C118.116 55.4889 117.777 55.4427 117.463 55.2783C117.157 55.1186 116.897 54.8732 116.685 54.5419C116.479 54.2096 116.333 53.8256 116.247 53.3899L115.986 52.0655L115.674 50.4849ZM119.586 51.6216C119.754 52.4751 119.994 53.0394 120.305 53.3144C120.617 53.5953 120.988 53.6934 121.418 53.6087C121.783 53.5367 122.047 53.3227 122.209 52.9666C122.378 52.6152 122.406 52.154 122.294 51.583C122.244 51.3299 122.164 51.1561 122.053 51.0617C121.95 50.972 121.798 50.9468 121.598 50.9863L119.541 51.392L119.586 51.6216ZM116.392 52.8202C116.509 53.4148 116.732 53.8814 117.062 54.22C117.399 54.5633 117.82 54.685 118.327 54.5852C119.339 54.3856 119.674 53.4145 119.33 51.6721L119.285 51.4425L116.795 51.9335C116.583 51.9753 116.447 52.0632 116.388 52.1972C116.335 52.33 116.334 52.5288 116.386 52.7937L116.392 52.8202ZM117.04 60.5568C117.015 60.0895 117.118 59.6211 117.351 59.1517C117.59 58.6879 117.956 58.2953 118.449 57.9738C118.942 57.6523 119.542 57.4722 120.249 57.4335C120.95 57.3951 121.563 57.5087 122.089 57.7743C122.614 58.04 123.018 58.3904 123.3 58.8256C123.589 59.2665 123.746 59.7206 123.771 60.1879C123.797 60.6552 123.69 61.1207 123.451 61.5845C123.218 62.0479 122.855 62.4404 122.362 62.7619C121.869 63.0833 121.272 63.2633 120.571 63.3017C119.864 63.3404 119.248 63.227 118.723 62.9613C118.197 62.6957 117.791 62.3454 117.502 61.9105C117.22 61.4753 117.066 61.0241 117.04 60.5568ZM117.337 60.5405C117.357 60.9 117.489 61.2322 117.734 61.5373C117.986 61.848 118.347 62.0895 118.819 62.262C119.298 62.4401 119.867 62.511 120.526 62.4749C121.179 62.4391 121.73 62.3068 122.18 62.0778C122.631 61.8548 122.961 61.5753 123.171 61.2393C123.387 60.909 123.486 60.5641 123.466 60.2046C123.446 59.8452 123.311 59.5101 123.059 59.1994C122.814 58.8883 122.455 58.6466 121.983 58.4742C121.511 58.3018 120.948 58.2334 120.295 58.2692C119.636 58.3054 119.078 58.4351 118.622 58.6584C118.172 58.8814 117.838 59.161 117.622 59.4973C117.412 59.8333 117.317 60.1811 117.337 60.5405ZM117.357 65.3612C117.36 65.3254 117.406 65.3117 117.496 65.3201C117.574 65.3275 117.611 65.349 117.607 65.3849L117.594 65.5282C117.576 65.7194 117.628 65.8991 117.751 66.0674C117.873 66.2416 118.036 66.3383 118.239 66.3574L122.97 66.8034C123.173 66.8225 123.322 66.7763 123.417 66.6647C123.512 66.5531 123.572 66.3629 123.597 66.0941L123.611 65.9508C123.615 65.9089 123.659 65.892 123.742 65.8999C123.826 65.9077 123.866 65.9326 123.862 65.9744L123.712 67.5604L118.302 70.6754L122.406 71.0622C122.537 71.0746 122.661 71.0441 122.776 70.9706C122.897 70.9036 122.993 70.8102 123.065 70.6904C123.142 70.5771 123.185 70.4637 123.196 70.3503L123.209 70.2158C123.212 70.186 123.223 70.1659 123.242 70.1557C123.266 70.1519 123.299 70.152 123.341 70.156C123.425 70.1639 123.464 70.1917 123.46 70.2395L123.255 72.4079C123.252 72.4378 123.239 72.4545 123.214 72.4583C123.195 72.4685 123.165 72.4717 123.123 72.4677C123.039 72.4599 123 72.432 123.004 72.3842L123.018 72.2409C123.036 72.0497 122.981 71.8667 122.853 71.6919C122.73 71.5237 122.57 71.4303 122.373 71.4117L116.835 70.8897L116.856 70.6747L123.017 67.1694L118.205 66.7158C118.002 66.6967 117.824 66.7643 117.671 66.9186C117.518 67.0729 117.432 67.2426 117.415 67.4278L117.401 67.5712C117.397 67.613 117.357 67.6302 117.279 67.6229C117.189 67.6145 117.147 67.5894 117.15 67.5475L117.357 65.3612ZM115.842 76.6859C115.853 76.6516 115.902 76.6481 115.987 76.6755C116.062 76.6991 116.093 76.7281 116.083 76.7624L116.039 76.8996C115.981 77.0826 115.993 77.2693 116.078 77.4598C116.16 77.6561 116.298 77.7852 116.493 77.8471L121.02 79.2897C121.215 79.3517 121.37 79.3382 121.487 79.2494C121.603 79.1605 121.702 78.9875 121.784 78.7302L121.828 78.593C121.841 78.553 121.887 78.5458 121.967 78.5713C122.047 78.5968 122.081 78.6295 122.068 78.6695L121.584 80.1874L115.635 82.0796L119.563 83.3309C119.688 83.371 119.816 83.3674 119.944 83.3202C120.076 83.2805 120.19 83.2097 120.286 83.1079C120.385 83.0136 120.452 82.9121 120.486 82.8035L120.527 82.6748C120.537 82.6463 120.551 82.629 120.572 82.623C120.597 82.6246 120.629 82.6317 120.669 82.6445C120.749 82.67 120.782 82.7056 120.768 82.7513L120.106 84.8266C120.097 84.8551 120.08 84.8687 120.056 84.8671C120.035 84.8731 120.004 84.8697 119.964 84.8569C119.884 84.8314 119.852 84.7958 119.866 84.7501L119.91 84.6129C119.968 84.4299 119.953 84.2394 119.865 84.0413C119.781 83.8508 119.645 83.7255 119.456 83.6654L114.157 81.9769L114.222 81.771L120.988 79.6573L116.383 78.1901C116.189 78.1282 116.001 78.1563 115.818 78.2745C115.636 78.3927 115.516 78.5404 115.46 78.7176L115.416 78.8548C115.403 78.8948 115.36 78.903 115.285 78.8793C115.2 78.852 115.163 78.8183 115.176 78.7783L115.842 76.6859ZM112.26 90.203C112.22 90.2436 112.175 90.252 112.127 90.2282C112.111 90.2203 112.074 90.1857 112.018 90.1244C111.723 89.7992 111.395 89.4515 111.036 89.0812L113.236 84.5969C113.254 84.5592 113.301 84.5588 113.377 84.5958C113.452 84.6328 113.48 84.6702 113.462 84.7079L113.399 84.8371C113.28 85.0795 113.231 85.2731 113.254 85.4178C113.279 85.5706 113.383 85.6919 113.567 85.7818L117.962 87.9383C118.151 88.0308 118.312 88.0363 118.445 87.9547C118.576 87.8786 118.698 87.7248 118.812 87.4931L118.875 87.3639C118.894 87.3261 118.941 87.3258 119.016 87.3628C119.092 87.3998 119.12 87.4371 119.102 87.4748L117.025 91.7087C116.818 91.721 116.602 91.732 116.377 91.7418C116.149 91.7569 115.978 91.7636 115.866 91.7617C115.852 91.7618 115.837 91.7579 115.821 91.75C115.794 91.7368 115.778 91.702 115.772 91.6457C115.769 91.6243 115.775 91.6001 115.788 91.5732C115.804 91.5408 115.828 91.5192 115.86 91.5082C116.213 91.3875 116.543 91.1918 116.85 90.9211C117.161 90.6531 117.414 90.3225 117.607 89.9293L117.706 89.7273C117.814 89.5065 117.887 89.3315 117.923 89.2024C117.965 89.076 117.968 88.9606 117.933 88.8562C117.897 88.7518 117.801 88.6613 117.645 88.5847L115.69 87.6253L115.333 88.3525C115.172 88.6811 115.069 88.8979 115.024 89.0029C114.918 89.2318 114.908 89.4438 114.992 89.6391C115.074 89.8397 115.226 89.9942 115.447 90.1026C115.484 90.1211 115.486 90.1653 115.452 90.2353C115.433 90.2731 115.415 90.2973 115.396 90.3082C115.38 90.3271 115.361 90.3313 115.34 90.3207L113.489 89.4129C113.446 89.3918 113.443 89.3435 113.48 89.2681C113.515 89.1981 113.553 89.1736 113.596 89.1948C113.817 89.3031 114.032 89.3283 114.241 89.2704C114.447 89.2179 114.608 89.0798 114.725 88.8562C114.78 88.7565 114.889 88.5424 115.05 88.2138L115.407 87.4866L113.249 86.4282C113.066 86.3383 112.912 86.3328 112.786 86.4115C112.661 86.4903 112.535 86.6455 112.408 86.8772C112.368 86.9446 112.306 87.0645 112.221 87.2369C112.158 87.3662 112.114 87.4617 112.09 87.5236C111.954 87.8708 111.884 88.1907 111.88 88.4832C111.877 88.7757 111.911 89.033 111.983 89.2552C112.057 89.4854 112.166 89.7529 112.311 90.0578C112.324 90.0845 112.325 90.1113 112.311 90.1383C112.304 90.1544 112.286 90.176 112.26 90.203ZM108.01 93.7273C108.444 93.0937 108.934 92.7129 109.479 92.585C110.03 92.4604 110.568 92.5778 111.093 92.9372L114.189 95.0581C114.362 95.1767 114.517 95.2061 114.652 95.1462C114.789 95.0947 114.934 94.9576 115.087 94.7348L115.163 94.6234C115.187 94.5888 115.233 94.5952 115.303 94.6427C115.372 94.6901 115.395 94.7312 115.371 94.7658L113.937 96.8597C113.92 96.8845 113.9 96.8926 113.876 96.884C113.855 96.8837 113.827 96.8717 113.792 96.8479C113.723 96.8005 113.702 96.7569 113.729 96.7173L113.805 96.606C113.958 96.3832 114.035 96.1961 114.037 96.0447C114.044 95.8967 113.96 95.7633 113.787 95.6446C112.852 95.0038 112.213 94.5664 111.871 94.3325C111.527 94.1035 111.305 93.9551 111.206 93.8873L111.013 93.755C110.522 93.4194 110.04 93.2269 109.564 93.1777C109.089 93.1284 108.665 93.3761 108.292 93.9206C107.888 94.5097 107.779 95.02 107.963 95.4517C108.144 95.8883 108.499 96.2881 109.029 96.6509L111.665 98.4564C111.833 98.5716 112.022 98.599 112.231 98.5383C112.439 98.4777 112.595 98.3732 112.696 98.2247L112.773 98.1133C112.796 98.0786 112.843 98.085 112.912 98.1325C112.982 98.18 113.004 98.221 112.981 98.2557L111.745 100.06C111.728 100.085 111.708 100.093 111.684 100.084C111.663 100.084 111.635 100.072 111.6 100.048C111.531 100.001 111.51 99.9572 111.537 99.9176L111.613 99.8062C111.715 99.6577 111.756 99.4752 111.737 99.2586C111.718 99.042 111.625 98.8761 111.456 98.7608L108.615 96.793C108.051 96.4064 107.71 95.9436 107.592 95.4046C107.474 94.8656 107.613 94.3065 108.01 93.7273ZM104.179 98.9891C104.204 98.9627 104.249 98.9801 104.315 99.0413C104.372 99.0944 104.389 99.1341 104.364 99.1605L104.272 99.2595C104.089 99.4575 103.985 99.6312 103.961 99.7807C103.941 99.9343 104.006 100.08 104.156 100.219L107.746 103.548C107.913 103.703 108.064 103.761 108.198 103.722C108.333 103.691 108.478 103.593 108.633 103.425C108.694 103.359 108.743 103.302 108.779 103.254C108.938 103.066 109.055 102.79 109.13 102.426C109.206 102.071 109.215 101.735 109.156 101.419C109.15 101.364 109.157 101.325 109.177 101.303C109.189 101.29 109.208 101.279 109.233 101.269C109.291 101.242 109.332 101.238 109.354 101.258L109.381 101.295C109.436 101.404 109.52 101.568 109.635 101.789C109.75 102.018 109.849 102.22 109.932 102.396L106.278 106.336C106.097 106.266 105.89 106.18 105.657 106.079C105.425 105.986 105.252 105.916 105.14 105.869L105.101 105.845C105.079 105.825 105.079 105.784 105.103 105.724C105.11 105.698 105.12 105.679 105.132 105.666C105.153 105.644 105.19 105.634 105.246 105.636C105.565 105.67 105.902 105.634 106.254 105.528C106.607 105.429 106.872 105.294 107.048 105.122C107.089 105.086 107.142 105.033 107.207 104.963C107.366 104.791 107.456 104.637 107.476 104.501C107.497 104.364 107.425 104.22 107.263 104.069L103.672 100.741C103.518 100.598 103.368 100.544 103.221 100.579C103.069 100.619 102.904 100.736 102.724 100.929L102.633 101.028C102.604 101.059 102.561 101.048 102.504 100.995C102.438 100.934 102.419 100.888 102.448 100.857L104.179 98.9891ZM95.5427 107.305C95.5101 107.331 95.4692 107.314 95.4201 107.254C95.3634 107.184 95.3513 107.136 95.3839 107.109L96.5928 106.128C97.0514 106.312 97.6358 106.537 98.3461 106.803C99.0602 107.073 99.6243 107.268 100.038 107.388C100.161 107.273 100.255 107.189 100.321 107.136L100.775 106.767L99.317 104.971C99.1846 104.808 99.0431 104.734 98.8923 104.748C98.7369 104.766 98.559 104.856 98.3587 105.019L98.2469 105.11C98.2143 105.136 98.1734 105.119 98.1243 105.058C98.0675 104.989 98.0555 104.94 98.0881 104.914L100.073 103.303C100.105 103.277 100.148 103.296 100.201 103.361C100.254 103.426 100.264 103.472 100.231 103.499L100.12 103.589C99.9099 103.76 99.785 103.915 99.7448 104.056C99.6999 104.201 99.7436 104.354 99.876 104.517L102.962 108.319C103.094 108.482 103.238 108.554 103.393 108.536C103.549 108.518 103.727 108.428 103.927 108.265L104.039 108.175C104.071 108.148 104.114 108.168 104.167 108.233C104.22 108.298 104.23 108.344 104.198 108.37L102.596 109.682L101.96 110.198C101.658 110.435 101.338 110.603 101 110.7C100.66 110.805 100.332 110.82 100.016 110.745C99.7034 110.674 99.4413 110.508 99.2295 110.247C98.9762 109.935 98.8874 109.578 98.9633 109.176C99.0382 108.783 99.2251 108.38 99.5239 107.968C99.2536 107.901 98.6924 107.719 97.8403 107.422C97.148 107.188 96.7502 107.055 96.6469 107.023C96.477 106.975 96.3031 106.966 96.1252 106.994C95.9465 107.031 95.7524 107.135 95.5427 107.305ZM100.724 107.133C100.058 107.674 99.6851 108.162 99.6057 108.597C99.5263 109.032 99.6247 109.42 99.9007 109.76C100.211 110.142 100.569 110.303 100.977 110.243C101.379 110.187 101.776 110 102.167 109.682C102.344 109.538 102.464 109.395 102.526 109.252C102.591 109.114 102.55 108.954 102.403 108.772L100.934 106.963L100.724 107.133ZM88.9486 111.424C88.928 111.437 88.9075 111.431 88.8869 111.409C88.8695 111.391 88.8531 111.37 88.8377 111.344C88.7946 111.272 88.7885 111.226 88.8194 111.208L91.0139 109.897C91.0345 109.885 91.0545 109.884 91.0741 109.893C91.0915 109.91 91.111 109.937 91.1326 109.973C91.1541 110.009 91.1669 110.037 91.171 110.055C91.173 110.082 91.1637 110.101 91.1431 110.114C90.9473 110.231 90.7943 110.36 90.6839 110.503C90.5765 110.651 90.569 110.802 90.6613 110.957C90.6982 111.019 90.7439 111.072 90.7984 111.116L91.9525 112.083L94.0851 110.81L93.8421 109.613C93.8116 109.456 93.7671 109.329 93.7086 109.231C93.5179 108.912 93.1778 108.898 92.6884 109.191C92.6678 109.203 92.6473 109.198 92.6267 109.175C92.6093 109.158 92.5929 109.136 92.5775 109.11C92.5344 109.038 92.5283 108.993 92.5592 108.974L94.46 107.839C94.4806 107.827 94.5007 107.825 94.5202 107.835C94.5377 107.852 94.5572 107.879 94.5787 107.915C94.6003 107.951 94.6131 107.978 94.6171 107.997C94.6191 108.024 94.6098 108.043 94.5892 108.056C94.4399 108.145 94.3202 108.29 94.2303 108.49C94.1403 108.691 94.1203 108.944 94.1701 109.249L95.2094 115.044L94.9263 115.36C94.9005 115.375 94.8727 115.381 94.8429 115.378C94.8079 115.378 94.7817 115.369 94.7643 115.352L94.0447 114.744C93.5711 114.349 92.8562 113.748 91.8998 112.943C90.9383 112.14 90.3805 111.68 90.2264 111.563C89.797 111.218 89.371 111.172 88.9486 111.424ZM92.2283 112.317L94.7784 114.463C94.5922 113.449 94.3835 112.351 94.1523 111.168L92.2283 112.317ZM87.4275 111.954C87.4495 111.945 87.4696 111.946 87.4878 111.958C87.5028 111.977 87.5186 112.007 87.5353 112.045C87.5709 112.128 87.5695 112.177 87.5309 112.194L87.3987 112.251C87.1453 112.36 86.9789 112.475 86.8997 112.594C86.8228 112.718 86.8259 112.877 86.9091 113.07L88.849 117.565C88.9322 117.758 89.0483 117.868 89.1972 117.895C89.3462 117.923 89.5419 117.884 89.7843 117.779L89.9165 117.722C89.9551 117.706 89.991 117.736 90.0243 117.813C90.0575 117.89 90.0549 117.937 90.0163 117.954L87.6695 118.966C87.642 118.978 87.6207 118.974 87.6057 118.955C87.5875 118.943 87.5701 118.918 87.5535 118.879C87.5202 118.802 87.5256 118.754 87.5697 118.735L87.6936 118.681C87.9415 118.574 88.1055 118.455 88.1855 118.322C88.2679 118.195 88.2687 118.038 88.1879 117.851L86.2481 113.355C86.1672 113.168 86.0563 113.062 85.9152 113.038C85.771 113.022 85.5698 113.063 85.3116 113.161L85.118 113.235L84.791 113.386C84.311 113.606 83.9646 113.886 83.752 114.227C83.5417 114.572 83.3871 114.979 83.2882 115.446C83.2836 115.481 83.2675 115.504 83.2399 115.516C83.2234 115.523 83.1951 115.526 83.1549 115.523C83.1013 115.52 83.0674 115.502 83.0531 115.469L83.0435 115.424C83.0246 115.093 83.0141 114.849 83.0122 114.693L82.9652 113.88L87.4275 111.954Z" fill="#CB0000"/>
<circle cx="64.4268" cy="64.4287" r="45.75" stroke="#CB0000" stroke-width="0.5"/>
<path d="M46.6262 72.5217C46.4815 72.5217 46.2542 72.5114 45.9442 72.4907C45.6342 72.47 45.2829 72.4494 44.8902 72.4287C44.4975 72.408 44.0842 72.3874 43.6502 72.3667C43.2369 72.346 42.8339 72.3357 42.4412 72.3357C42.0485 72.3357 41.4905 72.346 40.7672 72.3667C40.0439 72.3874 39.2792 72.408 38.4732 72.4287C37.6879 72.4287 36.9955 72.439 36.3962 72.4597C35.7969 72.4804 35.4145 72.4907 35.2492 72.4907C35.1665 72.4907 35.0425 72.4287 34.8772 72.3047C34.7119 72.16 34.6292 72.0464 34.6292 71.9637C34.6292 71.8604 34.6499 71.788 34.6912 71.7467C34.7325 71.7054 34.7945 71.6434 34.8772 71.5607L40.1782 66.0737C41.2115 64.999 42.0692 63.8004 42.7512 62.4777C43.4332 61.1344 43.7742 59.7807 43.7742 58.4167C43.7742 57.3214 43.4435 56.4637 42.7822 55.8437C42.1209 55.203 41.3459 54.8827 40.4572 54.8827C39.6099 54.8827 38.8245 55.1204 38.1012 55.5957C37.3779 56.0504 36.7992 56.6497 36.3652 57.3937C36.3032 57.5177 36.2205 57.621 36.1172 57.7037C36.0345 57.7864 35.9415 57.8277 35.8382 57.8277C35.7555 57.8277 35.6522 57.745 35.5282 57.5797C35.4249 57.3937 35.3732 57.1664 35.3732 56.8977C35.3732 56.6497 35.5179 56.3087 35.8072 55.8747C36.1172 55.4407 36.5409 54.9964 37.0782 54.5417C37.6155 54.087 38.2562 53.7047 39.0002 53.3947C39.7442 53.064 40.5502 52.8987 41.4182 52.8987C42.4515 52.8987 43.3402 53.1157 44.0842 53.5497C44.8282 53.9837 45.3965 54.583 45.7892 55.3477C46.1819 56.1124 46.3782 57.001 46.3782 58.0137C46.3782 58.5717 46.2749 59.171 46.0682 59.8117C45.8822 60.4524 45.6135 61.0827 45.2622 61.7027C44.9315 62.3227 44.5492 62.9014 44.1152 63.4387C43.8465 63.7694 43.4435 64.2137 42.9062 64.7717C42.3895 65.309 41.8212 65.8877 41.2012 66.5077C40.6019 67.1277 40.0232 67.7167 39.4652 68.2747C38.9279 68.812 38.4835 69.2667 38.1322 69.6387C37.7809 69.99 37.6052 70.1864 37.6052 70.2277C37.6052 70.331 37.7499 70.4034 38.0392 70.4447C38.3905 70.4654 38.7832 70.486 39.2172 70.5067C39.6719 70.5274 40.1885 70.5377 40.7672 70.5377C41.3665 70.5377 41.9659 70.5274 42.5652 70.5067C43.1645 70.486 43.7432 70.4654 44.3012 70.4447C44.9005 70.4034 45.3655 70.3517 45.6962 70.2897C46.0269 70.2277 46.3059 70.1037 46.5332 69.9177C46.7605 69.711 46.9982 69.401 47.2462 68.9877C47.3289 68.8637 47.4322 68.719 47.5562 68.5537C47.7009 68.3677 47.8559 68.2747 48.0212 68.2747C48.1245 68.2747 48.1865 68.316 48.2072 68.3987C48.2279 68.4814 48.2382 68.564 48.2382 68.6467C48.2382 68.75 48.1762 68.9567 48.0522 69.2667C47.9489 69.556 47.8249 69.9177 47.6802 70.3517C47.5355 70.7857 47.4115 71.261 47.3082 71.7777C47.2462 72.1084 47.1429 72.315 46.9982 72.3977C46.8535 72.4804 46.7295 72.5217 46.6262 72.5217ZM56.1267 72.8627C55.0727 72.8627 54.1531 72.5734 53.3677 71.9947C52.6031 71.416 51.9624 70.6514 51.4457 69.7007C50.9291 68.7294 50.5467 67.665 50.2987 66.5077C50.0507 65.3504 49.9267 64.2034 49.9267 63.0667C49.9267 61.8887 50.0507 60.7004 50.2987 59.5017C50.5467 58.303 50.9291 57.2077 51.4457 56.2157C51.9831 55.2237 52.6651 54.428 53.4917 53.8287C54.3184 53.2087 55.3001 52.8987 56.4367 52.8987C57.4907 52.8987 58.4001 53.188 59.1647 53.7667C59.9501 54.3454 60.6011 55.1204 61.1177 56.0917C61.6344 57.0424 62.0167 58.0964 62.2647 59.2537C62.5127 60.3904 62.6367 61.5167 62.6367 62.6327C62.6367 63.79 62.5127 64.968 62.2647 66.1667C62.0167 67.3654 61.6241 68.471 61.0867 69.4837C60.5701 70.4964 59.8984 71.3127 59.0717 71.9327C58.2657 72.5527 57.2841 72.8627 56.1267 72.8627ZM56.6537 72.0567C57.4804 72.0567 58.1417 71.6434 58.6377 70.8167C59.1544 69.9694 59.5264 68.874 59.7537 67.5307C59.9811 66.1874 60.0947 64.7407 60.0947 63.1907C60.0947 62.0334 60.0017 60.8967 59.8157 59.7807C59.6504 58.6647 59.3817 57.652 59.0097 56.7427C58.6584 55.8334 58.2141 55.11 57.6767 54.5727C57.1601 54.0354 56.5504 53.7667 55.8477 53.7667C55.0211 53.7667 54.3597 54.1697 53.8637 54.9757C53.3884 55.7817 53.0371 56.8564 52.8097 58.1997C52.6031 59.5224 52.4997 60.9587 52.4997 62.5087C52.4997 63.666 52.5824 64.813 52.7477 65.9497C52.9337 67.0864 53.1921 68.1197 53.5227 69.0497C53.8741 69.959 54.3081 70.6927 54.8247 71.2507C55.3414 71.788 55.9511 72.0567 56.6537 72.0567ZM66.8053 73.6067C66.5779 73.6067 66.3299 73.5757 66.0613 73.5137C65.7926 73.4724 65.6583 73.3794 65.6583 73.2347C65.6583 73.0694 65.7926 72.9247 66.0613 72.8007C66.3506 72.6974 66.5883 72.6457 66.7743 72.6457C68.4069 72.6457 69.7503 72.3564 70.8043 71.7777C71.8789 71.1784 72.6746 70.4344 73.1913 69.5457C73.7286 68.657 73.9973 67.7684 73.9973 66.8797C73.9973 66.0737 73.7596 65.3607 73.2843 64.7407C72.8089 64.1207 72.0236 63.5524 70.9283 63.0357C69.8536 62.519 68.3966 62.023 66.5573 61.5477C66.2886 61.3204 66.0923 61.093 65.9683 60.8657C65.8649 60.6384 65.8133 60.3904 65.8133 60.1217C65.8133 59.8324 65.8649 59.481 65.9683 59.0677C66.0923 58.6544 66.2369 58.2204 66.4023 57.7657C66.5676 57.2904 66.7329 56.8254 66.8983 56.3707C67.0636 55.916 67.1979 55.5234 67.3013 55.1927C67.4046 54.8827 67.5596 54.645 67.7663 54.4797C67.9729 54.2937 68.2416 54.1594 68.5723 54.0767C69.0476 53.9527 69.5333 53.839 70.0293 53.7357C70.5253 53.6324 71.0419 53.5394 71.5793 53.4567C72.1166 53.3534 72.6643 53.2707 73.2223 53.2087C73.8009 53.126 74.3899 53.0537 74.9893 52.9917C75.1546 52.971 75.2683 53.0227 75.3303 53.1467C75.4129 53.25 75.4129 53.374 75.3303 53.5187C75.2476 53.684 75.1546 53.8597 75.0513 54.0457C74.9686 54.211 74.8859 54.3764 74.8033 54.5417C74.6586 54.8517 74.4933 55.0894 74.3073 55.2547C74.1419 55.3994 73.9249 55.4924 73.6563 55.5337C73.2636 55.575 72.8089 55.6267 72.2923 55.6887C71.7756 55.73 71.2589 55.7817 70.7423 55.8437C70.2256 55.885 69.7503 55.9264 69.3163 55.9677C68.8823 56.009 68.5516 56.0504 68.3243 56.0917C68.1796 56.1124 68.0039 56.2984 67.7973 56.6497C67.5906 56.9804 67.4046 57.342 67.2393 57.7347C67.0739 58.1067 66.9809 58.3754 66.9603 58.5407C66.9396 58.6854 66.9499 58.8094 66.9913 58.9127C67.0533 59.016 67.1773 59.0884 67.3633 59.1297C68.5206 59.4604 69.5746 59.8014 70.5253 60.1527C71.4759 60.4834 72.3026 60.8347 73.0053 61.2067C74.1626 61.806 75.0203 62.519 75.5783 63.3457C76.1569 64.1517 76.4463 65.185 76.4463 66.4457C76.4463 67.5824 76.1053 68.6467 75.4233 69.6387C74.7413 70.6307 73.8216 71.4574 72.6643 72.1187C72.1063 72.4287 71.5173 72.687 70.8973 72.8937C70.2773 73.121 69.6263 73.2967 68.9443 73.4207C68.2623 73.5447 67.5493 73.6067 66.8053 73.6067ZM85.9158 72.8627C84.8618 72.8627 83.9421 72.5734 83.1568 71.9947C82.3921 71.416 81.7515 70.6514 81.2348 69.7007C80.7181 68.7294 80.3358 67.665 80.0878 66.5077C79.8398 65.3504 79.7158 64.2034 79.7158 63.0667C79.7158 61.8887 79.8398 60.7004 80.0878 59.5017C80.3358 58.303 80.7181 57.2077 81.2348 56.2157C81.7721 55.2237 82.4541 54.428 83.2808 53.8287C84.1075 53.2087 85.0891 52.8987 86.2258 52.8987C87.2798 52.8987 88.1891 53.188 88.9538 53.7667C89.7391 54.3454 90.3901 55.1204 90.9068 56.0917C91.4235 57.0424 91.8058 58.0964 92.0538 59.2537C92.3018 60.3904 92.4258 61.5167 92.4258 62.6327C92.4258 63.79 92.3018 64.968 92.0538 66.1667C91.8058 67.3654 91.4131 68.471 90.8758 69.4837C90.3591 70.4964 89.6875 71.3127 88.8608 71.9327C88.0548 72.5527 87.0731 72.8627 85.9158 72.8627ZM86.4428 72.0567C87.2695 72.0567 87.9308 71.6434 88.4268 70.8167C88.9435 69.9694 89.3155 68.874 89.5428 67.5307C89.7701 66.1874 89.8838 64.7407 89.8838 63.1907C89.8838 62.0334 89.7908 60.8967 89.6048 59.7807C89.4395 58.6647 89.1708 57.652 88.7988 56.7427C88.4475 55.8334 88.0031 55.11 87.4658 54.5727C86.9491 54.0354 86.3395 53.7667 85.6368 53.7667C84.8101 53.7667 84.1488 54.1697 83.6528 54.9757C83.1775 55.7817 82.8261 56.8564 82.5988 58.1997C82.3921 59.5224 82.2888 60.9587 82.2888 62.5087C82.2888 63.666 82.3715 64.813 82.5368 65.9497C82.7228 67.0864 82.9811 68.1197 83.3118 69.0497C83.6631 69.959 84.0971 70.6927 84.6138 71.2507C85.1305 71.788 85.7401 72.0567 86.4428 72.0567Z" fill="#CB0000"/>
</svg>
